<!-- Generated by IcoMoon.io -->
<svg version="1.1" xmlns="http://www.w3.org/2000/svg" width="32" height="32" viewBox="0 0 32 32">
<title>albums</title>
<path d="M23 6h-14c-0.552 0-1-0.448-1-1s0.448-1 1-1v0h14c0.552 0 1 0.448 1 1s-0.448 1-1 1v0z"></path>
<path d="M25 9h-18c-0.552 0-1-0.448-1-1s0.448-1 1-1v0h18c0.552 0 1 0.448 1 1s-0.448 1-1 1v0z"></path>
<path d="M26.196 28h-20.391c-1.548-0.002-2.803-1.256-2.804-2.804v-12.391c0.002-1.548 1.256-2.803 2.804-2.804h20.391c1.548 0.002 2.803 1.256 2.804 2.804v12.391c-0.002 1.548-1.256 2.803-2.804 2.804h-0z"></path>
</svg>
