<!-- Generated by IcoMoon.io -->
<svg version="1.1" xmlns="http://www.w3.org/2000/svg" width="32" height="32" viewBox="0 0 32 32">
<title>american-football-sharp</title>
<path d="M7.556 7.532c-2.797 2.785-4.206 6.316-4.915 9.119l12.644 12.59c2.816-0.706 6.361-2.109 9.158-4.894s4.206-6.316 4.915-9.119l-12.644-12.589c-2.816 0.706-6.361 2.112-9.158 4.894zM23.744 23.646v0zM20.931 9.634l1.407 1.401-2.111 2.102 1.407 1.401-1.413 1.399-1.409-1.399-1.405 1.399 1.405 1.403-1.407 1.401-1.406-1.401-1.408 1.401 1.408 1.401-1.408 1.401-1.405-1.401-2.111 2.102-1.409-1.401 2.111-2.102-1.408-1.401 1.408-1.403 1.409 1.403 1.405-1.403-1.405-1.399 1.407-1.401 1.406 1.401 1.407-1.401-1.408-1.401 1.408-1.401 1.405 1.401z"></path>
<path d="M29.905 12.401c0.461-3.422-0.905-9.398-0.905-9.398s-6.009-1.367-9.446-0.909c-0.159 0.021-0.326 0.045-0.5 0.071l10.779 10.732c0.027-0.172 0.051-0.339 0.072-0.497z"></path>
<path d="M2.095 19.478c-0.461 3.422 0.908 9.522 0.908 9.522s3.75 1 6.241 1c1.131-0.002 2.242-0.080 3.33-0.23l-0.128 0.014c0.159-0.021 0.326-0.045 0.5-0.072l-10.779-10.731c-0.027 0.172-0.051 0.339-0.072 0.497z"></path>
</svg>
