<!-- Generated by IcoMoon.io -->
<svg version="1.1" xmlns="http://www.w3.org/2000/svg" width="32" height="32" viewBox="0 0 32 32">
<title>archive-sharp</title>
<path d="M2.75 3h26.5c0.414 0 0.75 0.336 0.75 0.75v3.5c0 0.414-0.336 0.75-0.75 0.75h-26.5c-0.414 0-0.75-0.336-0.75-0.75v-3.5c0-0.414 0.336-0.75 0.75-0.75z"></path>
<path d="M4 10v17.5c0 0.828 0.672 1.5 1.5 1.5v0h21c0.828 0 1.5-0.672 1.5-1.5v0-17.5zM16 24.414l-5.418-5.414 1.418-1.418 3 3.003v-7.586h2v7.586l3.004-3.004 1.413 1.415z"></path>
</svg>
