<!-- Generated by IcoMoon.io -->
<svg version="1.1" xmlns="http://www.w3.org/2000/svg" width="32" height="32" viewBox="0 0 32 32">
<title>arrow-redo</title>
<path d="M3.674 27.446c-0.396-0.139-0.674-0.51-0.674-0.945 0-0 0-0 0-0v0c0-4.569 0.917-8.223 2.728-10.861 2.188-3.188 5.638-4.904 10.272-5.117v-5.022c0-0.552 0.448-1 1-1 0.268 0 0.511 0.105 0.691 0.277l-0-0 11 10.5c0.191 0.182 0.309 0.439 0.309 0.723s-0.119 0.541-0.309 0.723l-0 0-11 10.5c-0.179 0.171-0.423 0.277-0.691 0.277-0.552 0-1-0.448-1-1v0-4.986c-2.813 0.085-4.938 0.541-6.629 1.415-1.828 0.945-3.154 2.357-4.582 4.188-0.185 0.235-0.469 0.384-0.788 0.384-0.117 0-0.229-0.020-0.333-0.057l0.007 0.002z"></path>
</svg>
