<!-- Generated by IcoMoon.io -->
<svg version="1.1" xmlns="http://www.w3.org/2000/svg" width="32" height="32" viewBox="0 0 32 32">
<title>arrow-up-circle</title>
<path d="M16 3c-7.179 0-13 5.821-13 13s5.821 13 13 13 13-5.821 13-13-5.821-13-13-13zM21.71 16.291c-0.181 0.183-0.432 0.296-0.71 0.296-0.275 0-0.524-0.111-0.704-0.29l-3.296-3.27v8.349c0 0.552-0.448 1-1 1s-1-0.448-1-1v0-8.349l-3.296 3.27c-0.181 0.179-0.43 0.29-0.704 0.29-0.553 0-1.001-0.448-1.001-1.001 0-0.278 0.113-0.529 0.296-0.711l0-0 5-4.962c0.181-0.179 0.43-0.29 0.704-0.29s0.524 0.111 0.704 0.29l-0-0 5 4.962c0.183 0.181 0.296 0.433 0.296 0.711 0 0.275-0.111 0.524-0.291 0.705l0-0z"></path>
</svg>
