<!-- Generated by IcoMoon.io -->
<svg version="1.1" xmlns="http://www.w3.org/2000/svg" width="32" height="32" viewBox="0 0 32 32">
<title>bag-check-sharp</title>
<path d="M28.75 10h-5.5v-0.75c-0.003-3.94-3.145-7.145-7.060-7.25l-0.010-0c-0.063 0-0.12 0-0.181 0s-0.121 0-0.181 0c-3.925 0.105-7.066 3.31-7.069 7.25v0.75h-5.5c-0.138 0-0.25 0.112-0.25 0.25v0 18.75c0 0.552 0.448 1 1 1v0h24c0.552 0 1-0.448 1-1v0-18.75c0-0.138-0.112-0.25-0.25-0.25v0zM11.25 9.313c0-2.615 2.088-4.785 4.703-4.813 0.012-0 0.027-0 0.042-0 2.624 0 4.752 2.126 4.755 4.75v0.75h-9.5zM14.426 25.070l-3.836-4.483 1.519-1.301 2.266 2.645 5.469-6.838 1.563 1.25z"></path>
</svg>
