<!-- Generated by IcoMoon.io -->
<svg version="1.1" xmlns="http://www.w3.org/2000/svg" width="32" height="32" viewBox="0 0 32 32">
<title>balloon</title>
<path d="M24.438 19.204c2.047-2.897 2.912-6.352 2.438-9.73-0.778-5.374-5.353-9.457-10.881-9.457-0.541 0-1.072 0.039-1.592 0.114l0.059-0.007c-6 0.843-10.196 6.411-9.353 12.411 0.473 3.368 2.258 6.448 5.023 8.671 1.536 1.23 3.269 2.094 4.914 2.48 0.222 0.055 0.383 0.251 0.383 0.486 0 0.032-0.003 0.063-0.009 0.093l0.001-0.003-0.304 1.649c-0.012 0.059-0.019 0.127-0.019 0.197 0 0.169 0.041 0.329 0.114 0.469l-0.003-0.006c0.17 0.322 0.503 0.538 0.887 0.538 0 0 0 0 0.001 0h-0c0.001 0 0.001 0 0.002 0 0.049 0 0.096-0.004 0.143-0.011l-0.005 0.001 1.113-0.156c0.005-0.001 0.011-0.001 0.017-0.001 0.050 0 0.093 0.029 0.113 0.072l0 0.001c1.045 2.269 2.841 3.991 5.134 4.898 0.109 0.044 0.235 0.070 0.367 0.070 0.435 0 0.805-0.278 0.943-0.666l0.002-0.007c0.177-0.511-0.102-1.067-0.605-1.267-1.589-0.646-2.869-1.777-3.687-3.206l-0.019-0.036c-0.011-0.018-0.017-0.040-0.017-0.064 0-0.063 0.047-0.115 0.107-0.124l0.001-0 0.462-0.063c0.251-0.033 0.47-0.152 0.629-0.326l0.001-0.001c0.158-0.176 0.254-0.41 0.254-0.666 0-0.163-0.039-0.316-0.108-0.452l0.003 0.006-0.754-1.514c-0.033-0.065-0.052-0.142-0.052-0.223 0-0.187 0.102-0.349 0.254-0.435l0.002-0.001c1.474-0.823 2.903-2.125 4.041-3.733zM14.756 20.253c-0.132 0-0.259-0.026-0.374-0.072l0.007 0.002c-2.579-1.020-4.769-3.294-5.716-5.934-0.040-0.104-0.063-0.223-0.063-0.349 0-0.552 0.448-1 1-1 0.435 0 0.806 0.278 0.943 0.667l0.002 0.007c0.906 2.527 2.954 4.111 4.569 4.75 0.374 0.151 0.632 0.51 0.632 0.93 0 0.552-0.448 1-1 1-0 0-0 0-0.001 0h0z"></path>
</svg>
