<!-- Generated by IcoMoon.io -->
<svg version="1.1" xmlns="http://www.w3.org/2000/svg" width="32" height="32" viewBox="0 0 32 32">
<title>balloon-sharp</title>
<path d="M24.438 19.204c2.047-2.897 2.912-6.352 2.438-9.73v0c-0.846-6-6.414-10.196-12.414-9.349s-10.196 6.408-9.353 12.408c0.473 3.368 2.258 6.447 5.023 8.671 1.682 1.352 3.599 2.256 5.378 2.583l-0.523 2.827c-0.005 0.027-0.008 0.059-0.008 0.091 0 0.276 0.224 0.5 0.5 0.5 0.025 0 0.050-0.002 0.074-0.005l-0.003 0 1.888-0.263c0.994 2.242 2.603 3.78 4.901 4.688l0.93 0.367 0.736-1.859-0.93-0.368c-1.647-0.651-2.78-1.635-3.563-3.12l1.365-0.192c0.245-0.035 0.431-0.244 0.431-0.495 0-0.081-0.019-0.158-0.054-0.226l0.001 0.003-1.281-2.572c1.624-0.804 3.218-2.199 4.464-3.958zM14.386 20.183c-2.579-1.020-4.769-3.294-5.716-5.934l-0.338-0.941 1.883-0.675 0.338 0.941c0.906 2.527 2.954 4.111 4.569 4.75l0.93 0.367-0.736 1.86z"></path>
</svg>
