<!-- Generated by IcoMoon.io -->
<svg version="1.1" xmlns="http://www.w3.org/2000/svg" width="32" height="32" viewBox="0 0 32 32">
<title>bar-chart</title>
<path d="M30 31h-27c-1.105 0-2-0.895-2-2v0-27c0-0.552 0.448-1 1-1s1 0.448 1 1v0 27h27c0.552 0 1 0.448 1 1s-0.448 1-1 1v0z"></path>
<path d="M9.75 27h-2.5c-1.243 0-2.25-1.007-2.25-2.25v0-9.5c0-1.243 1.007-2.25 2.25-2.25v0h2.5c1.243 0 2.25 1.007 2.25 2.25v0 9.5c0 1.243-1.007 2.25-2.25 2.25v0z"></path>
<path d="M18.75 27h-2.5c-1.243 0-2.25-1.007-2.25-2.25v0-12.5c0-1.243 1.007-2.25 2.25-2.25v0h2.5c1.243 0 2.25 1.007 2.25 2.25v0 12.5c0 1.243-1.007 2.25-2.25 2.25v0z"></path>
<path d="M27.727 27h-2.5c-1.243 0-2.25-1.007-2.25-2.25v0-16.5c0-1.243 1.007-2.25 2.25-2.25v0h2.5c1.243 0 2.25 1.007 2.25 2.25v0 16.5c0 1.243-1.007 2.25-2.25 2.25v0z"></path>
</svg>
