<!-- Generated by IcoMoon.io -->
<svg version="1.1" xmlns="http://www.w3.org/2000/svg" width="32" height="32" viewBox="0 0 32 32">
<title>beaker</title>
<path d="M27.75 2h-19.75c-1.211 0-2.869 0.271-4.007 1.548-0.732 0.822-0.993 1.806-0.993 2.452 0 0 0 0 0 0 0 0.504 0.373 0.921 0.857 0.99l0.005 0.001c1.869 0.259 2.137 0.371 2.137 1.509v16.5c0.003 2.76 2.24 4.997 5 5h12c2.76-0.004 4.996-2.24 5-5v-19c0-0.784 0.466-1.703 0.625-1.96l0.006-0.009c0.014-0.022 0.031-0.045 0.049-0.069 0.125-0.174 0.318-0.438 0.318-0.809 0.002-0.666-0.567-1.153-1.248-1.153zM5.257 5.192c0.327-0.554 1.073-1.188 2.768-1.188h18.402c-0.221 0.549-0.427 1.262-0.427 1.995v4h-18v-1.5c0-2.332-1.334-3.009-2.743-3.308z"></path>
</svg>
