<!-- Generated by IcoMoon.io -->
<svg version="1.1" xmlns="http://www.w3.org/2000/svg" width="32" height="32" viewBox="0 0 32 32">
<title>bowling-ball</title>
<path d="M25.899 6.101c-2.538-2.563-6.058-4.149-9.948-4.149-7.732 0-14 6.268-14 14 0 3.89 1.587 7.41 4.148 9.947l0.001 0.001c2.538 2.563 6.058 4.149 9.948 4.149 7.732 0 14-6.268 14-14 0-3.89-1.587-7.41-4.148-9.947l-0.001-0.001zM18 14c-0.828 0-1.5-0.672-1.5-1.5s0.672-1.5 1.5-1.5c0.828 0 1.5 0.672 1.5 1.5v0c0 0.828-0.672 1.5-1.5 1.5v0zM18.5 9.5c-0.828 0-1.5-0.672-1.5-1.5s0.672-1.5 1.5-1.5c0.828 0 1.5 0.672 1.5 1.5v0c0 0.828-0.672 1.5-1.5 1.5v0zM22.5 12c-0.828 0-1.5-0.672-1.5-1.5s0.672-1.5 1.5-1.5c0.828 0 1.5 0.672 1.5 1.5v0c0 0.828-0.672 1.5-1.5 1.5v0z"></path>
</svg>
