<!-- Generated by IcoMoon.io -->
<svg version="1.1" xmlns="http://www.w3.org/2000/svg" width="32" height="32" viewBox="0 0 32 32">
<title>bulb-sharp</title>
<path d="M13 29h6v2h-6v-2z"></path>
<path d="M12 26h8v2h-8v-2z"></path>
<path d="M23.089 3.918c-1.879-1.882-4.397-2.918-7.089-2.918-0.007-0-0.015-0-0.024-0-5.51 0-9.976 4.467-9.976 9.976 0 0.008 0 0.017 0 0.025v-0.001c0 2.914 1.117 5.639 3.063 7.478l0.273 0.256c1.126 1.052 2.665 2.494 2.665 3.767v2.5h3v-8.181l-2.768-1.569 1.143-1.643 2.625 1.393 2.581-1.399 1.194 1.605-2.774 1.625v8.169h3v-2.5c0-1.242 1.523-2.683 2.634-3.736l0.307-0.291c2.001-1.911 3.059-4.497 3.059-7.473 0-0.015 0-0.033 0-0.050 0-2.746-1.113-5.232-2.911-7.032l0 0z"></path>
</svg>
