<!-- Generated by IcoMoon.io -->
<svg version="1.1" xmlns="http://www.w3.org/2000/svg" width="32" height="32" viewBox="0 0 32 32">
<title>business-sharp</title>
<path d="M20 11v-10h-18v30h8v-6h2v6h18v-20zM7 27h-2v-2h2zM7 22h-2v-2h2zM7 17h-2v-2h2zM7 12h-2v-2h2zM7 7h-2v-2h2zM15 5h2v2h-2zM12 22h-2v-2h2zM12 17h-2v-2h2zM12 12h-2v-2h2zM12 7h-2v-2h2zM17 27h-2v-2h2zM17 22h-2v-2h2zM17 17h-2v-2h2zM17 12h-2v-2h2v2zM28 29h-8v-2h2v-2h-2v-3h2v-2h-2v-3h2v-2h-2v-2h8z"></path>
<path d="M24 25h2v2h-2v-2z"></path>
<path d="M24 20h2v2h-2v-2z"></path>
<path d="M24 15h2v2h-2v-2z"></path>
</svg>
