<!-- Generated by IcoMoon.io -->
<svg version="1.1" xmlns="http://www.w3.org/2000/svg" width="32" height="32" viewBox="0 0 32 32">
<title>business</title>
<path d="M27 11h-7v-7c0-1.657-1.343-3-3-3v0h-12c-1.657 0-3 1.343-3 3v0 26c0 0.552 0.448 1 1 1v0h6.5c0.276 0 0.5-0.224 0.5-0.5v0-4.472c0-0.538 0.414-1 0.952-1.027 0.014-0.001 0.031-0.001 0.048-0.001 0.552 0 1 0.448 1 1v0 4.5c0 0.276 0.224 0.5 0.5 0.5v0h16.5c0.552 0 1-0.448 1-1v0-16c0-1.657-1.343-3-3-3v0zM6.13 26.992c-0.039 0.005-0.084 0.008-0.13 0.008-0.552 0-1-0.448-1-1s0.448-1 1-1c0.552 0 1 0.448 1 1 0 0.046-0.003 0.091-0.009 0.135l0.001-0.005c-0.060 0.45-0.412 0.801-0.857 0.861l-0.005 0.001zM6.13 21.992c-0.039 0.005-0.084 0.008-0.13 0.008-0.552 0-1-0.448-1-1s0.448-1 1-1c0.552 0 1 0.448 1 1 0 0.046-0.003 0.091-0.009 0.135l0.001-0.005c-0.060 0.45-0.412 0.801-0.857 0.861l-0.005 0.001zM6.13 16.992c-0.039 0.005-0.084 0.008-0.13 0.008-0.552 0-1-0.448-1-1s0.448-1 1-1c0.552 0 1 0.448 1 1 0 0.046-0.003 0.091-0.009 0.135l0.001-0.005c-0.060 0.45-0.412 0.801-0.857 0.861l-0.005 0.001zM6.13 11.992c-0.039 0.005-0.084 0.008-0.13 0.008-0.552 0-1-0.448-1-1s0.448-1 1-1c0.552 0 1 0.448 1 1 0 0.046-0.003 0.091-0.009 0.135l0.001-0.005c-0.060 0.45-0.412 0.801-0.857 0.861l-0.005 0.001zM6.13 6.992c-0.039 0.005-0.084 0.008-0.13 0.008-0.552 0-1-0.448-1-1s0.448-1 1-1c0.552 0 1 0.448 1 1 0 0.046-0.003 0.091-0.009 0.135l0.001-0.005c-0.060 0.45-0.412 0.801-0.857 0.861l-0.005 0.001zM11.13 21.992c-0.039 0.005-0.084 0.008-0.13 0.008-0.552 0-1-0.448-1-1s0.448-1 1-1c0.552 0 1 0.448 1 1 0 0.046-0.003 0.091-0.009 0.135l0.001-0.005c-0.060 0.45-0.412 0.801-0.857 0.861l-0.005 0.001zM11.13 16.992c-0.039 0.005-0.084 0.008-0.13 0.008-0.552 0-1-0.448-1-1s0.448-1 1-1c0.552 0 1 0.448 1 1 0 0.046-0.003 0.091-0.009 0.135l0.001-0.005c-0.060 0.45-0.412 0.801-0.857 0.861l-0.005 0.001zM11.13 11.992c-0.039 0.005-0.084 0.008-0.13 0.008-0.552 0-1-0.448-1-1s0.448-1 1-1c0.552 0 1 0.448 1 1 0 0.046-0.003 0.091-0.009 0.135l0.001-0.005c-0.060 0.45-0.412 0.801-0.857 0.861l-0.005 0.001zM11.13 6.992c-0.039 0.005-0.084 0.008-0.13 0.008-0.552 0-1-0.448-1-1s0.448-1 1-1c0.552 0 1 0.448 1 1 0 0.046-0.003 0.091-0.009 0.135l0.001-0.005c-0.060 0.45-0.412 0.801-0.857 0.861l-0.005 0.001zM16.13 26.992c-0.039 0.005-0.084 0.008-0.13 0.008-0.552 0-1-0.448-1-1s0.448-1 1-1c0.552 0 1 0.448 1 1 0 0.046-0.003 0.091-0.009 0.135l0.001-0.005c-0.060 0.45-0.412 0.801-0.857 0.861l-0.005 0.001zM16.13 21.992c-0.039 0.005-0.084 0.008-0.13 0.008-0.552 0-1-0.448-1-1s0.448-1 1-1c0.552 0 1 0.448 1 1 0 0.046-0.003 0.091-0.009 0.135l0.001-0.005c-0.060 0.45-0.412 0.801-0.857 0.861l-0.005 0.001zM16.13 16.992c-0.039 0.005-0.084 0.008-0.13 0.008-0.552 0-1-0.448-1-1s0.448-1 1-1c0.552 0 1 0.448 1 1 0 0.046-0.003 0.091-0.009 0.135l0.001-0.005c-0.060 0.45-0.412 0.801-0.857 0.861l-0.005 0.001zM16.13 11.992c-0.039 0.005-0.084 0.008-0.13 0.008-0.552 0-1-0.448-1-1s0.448-1 1-1c0.552 0 1 0.448 1 1 0 0.046-0.003 0.091-0.009 0.135l0.001-0.005c-0.060 0.45-0.412 0.801-0.857 0.861l-0.005 0.001zM16.13 6.992c-0.039 0.005-0.084 0.008-0.13 0.008-0.552 0-1-0.448-1-1s0.448-1 1-1c0.552 0 1 0.448 1 1 0 0.046-0.003 0.091-0.009 0.135l0.001-0.005c-0.060 0.45-0.412 0.801-0.857 0.861l-0.005 0.001zM27.75 29h-7.75v-16h7c0.552 0 1 0.448 1 1v0 14.75c0 0.138-0.112 0.25-0.25 0.25v0z"></path>
<path d="M25 25c-0.552 0-1 0.448-1 1s0.448 1 1 1c0.552 0 1-0.448 1-1v0c0-0.552-0.448-1-1-1v0z"></path>
<path d="M25 20c-0.552 0-1 0.448-1 1s0.448 1 1 1c0.552 0 1-0.448 1-1v0c0-0.552-0.448-1-1-1v0z"></path>
<path d="M25 15c-0.552 0-1 0.448-1 1s0.448 1 1 1c0.552 0 1-0.448 1-1v0c0-0.552-0.448-1-1-1v0z"></path>
<path d="M21 25c-0.552 0-1 0.448-1 1s0.448 1 1 1c0.552 0 1-0.448 1-1v0c0-0.552-0.448-1-1-1v0z"></path>
<path d="M21 20c-0.552 0-1 0.448-1 1s0.448 1 1 1c0.552 0 1-0.448 1-1v0c0-0.552-0.448-1-1-1v0z"></path>
<path d="M21 15c-0.552 0-1 0.448-1 1s0.448 1 1 1c0.552 0 1-0.448 1-1v0c0-0.552-0.448-1-1-1v0z"></path>
</svg>
