<!-- Generated by IcoMoon.io -->
<svg version="1.1" xmlns="http://www.w3.org/2000/svg" width="32" height="32" viewBox="0 0 32 32">
<title>cafe-sharp</title>
<path d="M28 4h-23v15.896c0 0.001 0 0.003 0 0.004 0 0.344 0.14 0.655 0.366 0.88l1.853 1.854c0.225 0.226 0.536 0.366 0.881 0.366 0.001 0 0.003 0 0.004 0h12.792c0.001 0 0.002 0 0.004 0 0.344 0 0.656-0.14 0.881-0.366l1.853-1.854c0.226-0.225 0.366-0.536 0.366-0.88 0-0.001 0-0.003 0-0.004v0-7.896h2c0.276-0 0.526-0.112 0.707-0.293l2-2c0.181-0.181 0.293-0.431 0.293-0.707v-4c0-0.552-0.448-1-1-1v0zM27 8.586l-1.414 1.414h-1.586v-4h3z"></path>
<path d="M3 25h23v2h-23v-2z"></path>
</svg>
