<!-- Generated by IcoMoon.io -->
<svg version="1.1" xmlns="http://www.w3.org/2000/svg" width="32" height="32" viewBox="0 0 32 32">
<title>calendar-number</title>
<path d="M26 4h-1v-0.972c0-0.538-0.414-1-0.952-1.027-0.014-0.001-0.031-0.001-0.048-0.001-0.552 0-1 0.448-1 1v0 1h-14v-0.972c0-0.538-0.414-1-0.952-1.027-0.014-0.001-0.031-0.001-0.048-0.001-0.552 0-1 0.448-1 1v0 1h-1c-2.209 0-4 1.791-4 4v0 0.75c0 0.138 0.112 0.25 0.25 0.25v0h27.5c0.138 0 0.25-0.112 0.25-0.25v0-0.75c0-2.209-1.791-4-4-4v0z"></path>
<path d="M29.75 11h-27.5c-0.138 0-0.25 0.112-0.25 0.25v0 14.75c0 2.209 1.791 4 4 4v0h20c2.209 0 4-1.791 4-4v0-14.75c0-0.138-0.112-0.25-0.25-0.25v0zM14.974 25.069c-0.761 0.601-1.797 0.931-2.919 0.931-1.742 0-3.030-1.135-3.604-2.106-0.088-0.146-0.139-0.321-0.139-0.509 0-0.553 0.448-1.001 1.001-1.001 0.365 0 0.684 0.195 0.859 0.487l0.003 0.005c0.068 0.115 0.697 1.125 1.881 1.125 1.041 0 2.258-0.456 2.258-1.739 0-0.391-0.076-0.934-0.438-1.305-0.534-0.546-1.422-0.792-1.882-0.792-0.552 0-1-0.448-1-1s0.448-1 1-1v0c0.303 0 1.088-0.163 1.58-0.666 0.254-0.25 0.411-0.597 0.411-0.98 0-0.009-0-0.017-0-0.026l0 0.001c0-1.452-1.789-1.494-1.993-1.494-1.084 0-1.488 0.663-1.504 0.691-0.174 0.308-0.5 0.513-0.873 0.513-0.552 0-1-0.448-1-1 0-0.196 0.056-0.379 0.154-0.533l-0.002 0.004c0.477-0.813 1.576-1.675 3.226-1.675 1.027 0 1.985 0.298 2.696 0.839 0.837 0.637 1.297 1.58 1.297 2.655 0 0.006 0 0.014 0 0.021 0 0.93-0.376 1.771-0.984 2.382l0-0c-0.072 0.074-0.148 0.142-0.224 0.209 0.195 0.142 0.367 0.29 0.526 0.451l0.001 0.001c0.66 0.675 1.009 1.609 1.009 2.703 0.002 1.129-0.474 2.126-1.337 2.808zM23 24.75c0 0.552-0.448 1-1 1s-1-0.448-1-1v0-8.732l-1.407 1.037c-0.164 0.122-0.37 0.195-0.594 0.195-0.552 0-1-0.448-1-1 0-0.329 0.159-0.621 0.404-0.803l0.003-0.002 2.714-2c0.164-0.122 0.37-0.195 0.593-0.195h0.288c0.552 0 1 0.448 1 1v0z"></path>
</svg>
