<!-- Generated by IcoMoon.io -->
<svg version="1.1" xmlns="http://www.w3.org/2000/svg" width="32" height="32" viewBox="0 0 32 32">
<title>calendar-sharp</title>
<path d="M2 28.5c0 0.828 0.672 1.5 1.5 1.5v0h25c0.828 0 1.5-0.672 1.5-1.5v0-17.5h-28zM22 13.25c0-0.138 0.112-0.25 0.25-0.25v0h2.5c0.138 0 0.25 0.112 0.25 0.25v0 2.5c0 0.138-0.112 0.25-0.25 0.25v0h-2.5c-0.138 0-0.25-0.112-0.25-0.25v0zM22 18.25c0-0.138 0.112-0.25 0.25-0.25v0h2.5c0.138 0 0.25 0.112 0.25 0.25v0 2.5c0 0.138-0.112 0.25-0.25 0.25v0h-2.5c-0.138 0-0.25-0.112-0.25-0.25v0zM17 13.25c0-0.138 0.112-0.25 0.25-0.25v0h2.5c0.138 0 0.25 0.112 0.25 0.25v0 2.5c0 0.138-0.112 0.25-0.25 0.25v0h-2.5c-0.138 0-0.25-0.112-0.25-0.25v0zM17 18.25c0-0.138 0.112-0.25 0.25-0.25v0h2.5c0.138 0 0.25 0.112 0.25 0.25v0 2.5c0 0.138-0.112 0.25-0.25 0.25v0h-2.5c-0.138 0-0.25-0.112-0.25-0.25v0zM17 23.25c0-0.138 0.112-0.25 0.25-0.25v0h2.5c0.138 0 0.25 0.112 0.25 0.25v0 2.5c0 0.138-0.112 0.25-0.25 0.25v0h-2.5c-0.138 0-0.25-0.112-0.25-0.25v0zM12 18.25c0-0.138 0.112-0.25 0.25-0.25v0h2.5c0.138 0 0.25 0.112 0.25 0.25v0 2.5c0 0.138-0.112 0.25-0.25 0.25v0h-2.5c-0.138 0-0.25-0.112-0.25-0.25v0zM12 23.25c0-0.138 0.112-0.25 0.25-0.25v0h2.5c0.138 0 0.25 0.112 0.25 0.25v0 2.5c0 0.138-0.112 0.25-0.25 0.25v0h-2.5c-0.138 0-0.25-0.112-0.25-0.25v0zM7 18.25c0-0.138 0.112-0.25 0.25-0.25v0h2.5c0.138 0 0.25 0.112 0.25 0.25v0 2.5c0 0.138-0.112 0.25-0.25 0.25v0h-2.5c-0.138 0-0.25-0.112-0.25-0.25v0zM7 23.25c0-0.138 0.112-0.25 0.25-0.25v0h2.5c0.138 0 0.25 0.112 0.25 0.25v0 2.5c0 0.138-0.112 0.25-0.25 0.25v0h-2.5c-0.138 0-0.25-0.112-0.25-0.25v0z"></path>
<path d="M28.5 4h-3.495v-2h-3v2h-12.010v-2h-3v2h-3.495c-0.004-0-0.008-0-0.013-0-0.821 0-1.486 0.665-1.488 1.486v3.514h28v-3.514c-0.001-0.821-0.667-1.486-1.488-1.486-0.004 0-0.009 0-0.013 0h0.001z"></path>
</svg>
