<!-- Generated by IcoMoon.io -->
<svg version="1.1" xmlns="http://www.w3.org/2000/svg" width="32" height="32" viewBox="0 0 32 32">
<title>calendar-number-sharp</title>
<path d="M2 28.5c0 0.828 0.672 1.5 1.5 1.5v0h25c0.828 0 1.5-0.672 1.5-1.5v0-17.5h-28zM21.386 13.25h1.614v12.5h-2v-9.732l-2.212 1.63-1.188-1.61zM13.875 20.956c-0.534-0.546-1.422-0.792-1.882-0.792h-1v-2h1c0.303 0 1.088-0.163 1.58-0.666 0.254-0.25 0.411-0.597 0.411-0.98 0-0.009-0-0.017-0-0.026l0 0.001c0-1.452-1.789-1.494-1.993-1.494-1.084 0-1.488 0.663-1.504 0.691l-0.508 0.861-1.723-1.017 0.509-0.861c0.477-0.813 1.576-1.675 3.226-1.675 1.027 0 1.985 0.298 2.696 0.839 0.837 0.637 1.297 1.58 1.297 2.655 0 0.006 0 0.014 0 0.021 0 0.93-0.376 1.771-0.984 2.382l0-0c-0.072 0.074-0.148 0.142-0.224 0.209 0.195 0.142 0.367 0.29 0.526 0.451l0.001 0.001c0.66 0.675 1.009 1.609 1.009 2.703 0 1.129-0.476 2.125-1.339 2.808-0.761 0.601-1.797 0.931-2.919 0.931-1.742 0-3.030-1.135-3.604-2.106l-0.508-0.861 1.723-1.017 0.51 0.859c0.068 0.115 0.697 1.125 1.881 1.125 1.041 0 2.258-0.456 2.258-1.739 0-0.391-0.076-0.934-0.438-1.305z"></path>
<path d="M28.5 4h-3.495v-2h-3v2h-12.010v-2h-3v2h-3.495c-0.004-0-0.008-0-0.013-0-0.821 0-1.486 0.665-1.488 1.486v3.514h28v-3.514c-0.001-0.821-0.667-1.486-1.488-1.486-0.004 0-0.009 0-0.013 0h0.001z"></path>
</svg>
