<!-- Generated by IcoMoon.io -->
<svg version="1.1" xmlns="http://www.w3.org/2000/svg" width="32" height="32" viewBox="0 0 32 32">
<title>caret-up-circle</title>
<path d="M16 3c-7.179 0-13 5.821-13 13s5.821 13 13 13 13-5.821 13-13-5.821-13-13-13zM20.634 18.75h-9.268c-0.552-0-0.999-0.448-0.999-1 0-0.244 0.087-0.467 0.232-0.641l-0.001 0.002 4.633-5.568c0.185-0.221 0.46-0.36 0.769-0.36s0.584 0.14 0.767 0.359l0.001 0.002 4.633 5.568c0.144 0.172 0.231 0.395 0.231 0.639 0 0.552-0.447 1-0.999 1h-0z"></path>
</svg>
