<!-- Generated by IcoMoon.io -->
<svg version="1.1" xmlns="http://www.w3.org/2000/svg" width="32" height="32" viewBox="0 0 32 32">
<title>cash-sharp</title>
<path d="M3 23h26v2h-26v-2z"></path>
<path d="M5 26h22v2h-22v-2z"></path>
<path d="M30 11c-3.312-0.004-5.996-2.688-6-6v-1h-16v1c-0.004 3.312-2.688 5.996-6 6h-1v4h1c3.312 0.004 5.996 2.688 6 6v1h16v-1c0.004-3.312 2.688-5.996 6-6h1v-4zM16 19c-3.314 0-6-2.686-6-6s2.686-6 6-6c3.314 0 6 2.686 6 6v0c-0.004 3.312-2.688 5.996-6 6h-0z"></path>
<path d="M6 5v-1h-5v5h1c2.208-0.002 3.998-1.792 4-4v-0z"></path>
<path d="M2 17h-1v5h5v-1c-0.003-2.208-1.792-3.997-4-4h-0z"></path>
<path d="M30 9h1v-5h-5v1c0.003 2.208 1.792 3.998 4 4h0z"></path>
<path d="M26 21v1h5v-5h-1c-2.208 0.003-3.997 1.792-4 4v0z"></path>
<path d="M20 13c0 2.209-1.791 4-4 4s-4-1.791-4-4c0-2.209 1.791-4 4-4s4 1.791 4 4z"></path>
</svg>
