<!-- Generated by IcoMoon.io -->
<svg version="1.1" xmlns="http://www.w3.org/2000/svg" width="32" height="32" viewBox="0 0 32 32">
<title>cellular</title>
<path d="M29.5 27h-3c-0.828 0-1.5-0.672-1.5-1.5v0-19c0-0.828 0.672-1.5 1.5-1.5v0h3c0.828 0 1.5 0.672 1.5 1.5v0 19c0 0.828-0.672 1.5-1.5 1.5v0z"></path>
<path d="M21.5 27h-3c-0.828 0-1.5-0.672-1.5-1.5v0-14c0-0.828 0.672-1.5 1.5-1.5v0h3c0.828 0 1.5 0.672 1.5 1.5v0 14c0 0.828-0.672 1.5-1.5 1.5v0z"></path>
<path d="M13.5 27h-3c-0.828 0-1.5-0.672-1.5-1.5v0-10c0-0.828 0.672-1.5 1.5-1.5v0h3c0.828 0 1.5 0.672 1.5 1.5v0 10c0 0.828-0.672 1.5-1.5 1.5v0z"></path>
<path d="M5.5 27h-3c-0.828 0-1.5-0.672-1.5-1.5v0-6c0-0.828 0.672-1.5 1.5-1.5v0h3c0.828 0 1.5 0.672 1.5 1.5v0 6c0 0.828-0.672 1.5-1.5 1.5v0z"></path>
</svg>
