<!-- Generated by IcoMoon.io -->
<svg version="1.1" xmlns="http://www.w3.org/2000/svg" width="32" height="32" viewBox="0 0 32 32">
<title>chatbox-ellipses-sharp</title>
<path d="M28.5 3h-25c-0.828 0-1.5 0.672-1.5 1.5v0 18c0 0.828 0.672 1.5 1.5 1.5v0h4.5v5l7.359-5h13.141c0.828 0 1.5-0.672 1.5-1.5v0-18c0-0.828-0.672-1.5-1.5-1.5v0zM10 15.5c-1.105 0-2-0.895-2-2s0.895-2 2-2c1.105 0 2 0.895 2 2v0c0 1.105-0.895 2-2 2v0zM16 15.5c-1.105 0-2-0.895-2-2s0.895-2 2-2c1.105 0 2 0.895 2 2v0c0 1.105-0.895 2-2 2v0zM22 15.5c-1.105 0-2-0.895-2-2s0.895-2 2-2c1.105 0 2 0.895 2 2v0c0 1.105-0.895 2-2 2v0zM28.5 5v0z"></path>
</svg>
