<!-- Generated by IcoMoon.io -->
<svg version="1.1" xmlns="http://www.w3.org/2000/svg" width="32" height="32" viewBox="0 0 32 32">
<title>chatbubble-ellipses-sharp</title>
<path d="M29.701 12.908c-0.646-3.041-2.36-5.808-4.826-7.793-2.409-1.941-5.507-3.115-8.879-3.115-0.002 0-0.005 0-0.007 0h0c-3.808 0-7.364 1.467-10.023 4.131-2.569 2.578-3.978 5.981-3.966 9.58 0 2.764 0.832 5.333 2.259 7.472l-0.031-0.049 0.272 0.378-1.5 6.489 7.175-1.785s0.144 0.048 0.25 0.089 1.021 0.391 1.991 0.663c0.806 0.225 2.484 0.563 3.798 0.563 3.728 0 7.209-1.444 9.802-4.066 2.569-2.602 3.984-6.061 3.984-9.744 0-0.001 0-0.002 0-0.003 0-0.995-0.109-1.964-0.315-2.896l0.016 0.089zM10 18c-1.105 0-2-0.895-2-2s0.895-2 2-2c1.105 0 2 0.895 2 2v0c0 1.105-0.895 2-2 2v0zM16 18c-1.105 0-2-0.895-2-2s0.895-2 2-2c1.105 0 2 0.895 2 2v0c0 1.105-0.895 2-2 2v0zM22 18c-1.105 0-2-0.895-2-2s0.895-2 2-2c1.105 0 2 0.895 2 2v0c0 1.105-0.895 2-2 2v0z"></path>
</svg>
