<!-- Generated by IcoMoon.io -->
<svg version="1.1" xmlns="http://www.w3.org/2000/svg" width="32" height="32" viewBox="0 0 32 32">
<title>color-palette</title>
<path d="M27.563 21.012l-0.004-0.003c-0.621-0.574-1.424-0.709-2.010-0.808l-0.043-0.008c-0.566-0.093-0.655-0.156-0.911-0.386-0.152-0.136-0.334-0.353-0.334-0.621s0.182-0.486 0.334-0.621l1.893-1.679c1.62-1.432 2.512-3.354 2.512-5.412s-0.891-3.98-2.512-5.412c-2.243-1.974-5.313-3.063-8.648-3.063-3.856 0-7.713 1.461-10.588 4.007-2.742 2.423-4.25 5.669-4.25 9.14s1.51 6.717 4.25 9.139c1.359 1.203 2.968 2.136 4.783 2.776 1.616 0.585 3.481 0.928 5.425 0.937l0.004 0h0.113c3.813 0 7.443-1.286 9.962-3.525 0.606-0.535 0.947-1.302 0.959-2.16 0.013-0.886-0.336-1.747-0.933-2.303zM7 13c0-1.105 0.895-2 2-2s2 0.895 2 2c0 1.105-0.895 2-2 2v0c-1.105 0-2-0.895-2-2v0zM9.5 21.438c-1.105 0-2-0.895-2-2s0.895-2 2-2c1.105 0 2 0.895 2 2v0c0 1.105-0.895 2-2 2v0zM12 9c0-1.105 0.895-2 2-2s2 0.895 2 2c0 1.105-0.895 2-2 2v0c-1.105 0-2-0.895-2-2v0zM16 25.938c-1.657 0-3-1.343-3-3s1.343-3 3-3c1.657 0 3 1.343 3 3v0c0 1.657-1.343 3-3 3v0zM20.5 11c-1.105 0-2-0.895-2-2s0.895-2 2-2c1.105 0 2 0.895 2 2v0c0 1.105-0.895 2-2 2v0z"></path>
</svg>
