<!-- Generated by IcoMoon.io -->
<svg version="1.1" xmlns="http://www.w3.org/2000/svg" width="32" height="32" viewBox="0 0 32 32">
<title>color-wand-sharp</title>
<path d="M8.34 12.54l4.2-4.2 4.884 4.884-4.2 4.2-4.884-4.884z"></path>
<path d="M18.838 14.638l-4.199 4.2 11.111 11.162 4.25-4.25-11.162-11.112z"></path>
<path d="M2 11h5v2h-5v-2z"></path>
<path d="M4.226 5.641l1.414-1.414 3.536 3.536-1.414 1.414-3.536-3.536z"></path>
<path d="M11 2h2v5h-2v-5z"></path>
<path d="M14.832 7.762l3.536-3.536 1.414 1.414-3.536 3.536-1.414-1.414z"></path>
<path d="M4.226 18.368l3.536-3.536 1.414 1.414-3.536 3.536-1.414-1.414z"></path>
</svg>
