<!-- Generated by IcoMoon.io -->
<svg version="1.1" xmlns="http://www.w3.org/2000/svg" width="32" height="32" viewBox="0 0 32 32">
<title>compass</title>
<path d="M17.5 16c0 0.828-0.672 1.5-1.5 1.5s-1.5-0.672-1.5-1.5c0-0.828 0.672-1.5 1.5-1.5s1.5 0.672 1.5 1.5z"></path>
<path d="M16 3c-7.168 0-13 5.832-13 13s5.832 13 13 13 13-5.832 13-13-5.832-13-13-13zM22.567 10.083l-2.93 7.325c-0.415 1.020-1.209 1.813-2.202 2.219l-0.027 0.010-7.325 2.93c-0.055 0.023-0.119 0.036-0.186 0.036-0.276 0-0.5-0.224-0.5-0.5 0-0.067 0.013-0.131 0.037-0.189l-0.001 0.003 2.93-7.325c0.415-1.020 1.209-1.813 2.202-2.219l0.027-0.010 7.325-2.93c0.055-0.023 0.119-0.036 0.186-0.036 0.276 0 0.5 0.224 0.5 0.5 0 0.067-0.013 0.131-0.037 0.189l0.001-0.003z"></path>
</svg>
