<!-- Generated by IcoMoon.io -->
<svg version="1.1" xmlns="http://www.w3.org/2000/svg" width="32" height="32" viewBox="0 0 32 32">
<title>create-sharp</title>
<path d="M29.023 3.075c-0.253-0.277-0.616-0.45-1.019-0.45-0.38 0-0.724 0.154-0.974 0.402l-1.144 1.141 1.949 1.944 1.125-1.119c0.258-0.252 0.418-0.603 0.418-0.992 0-0.357-0.135-0.682-0.356-0.927l0.001 0.001z"></path>
<path d="M15.797 21h-4.797v-4.797l9.221-9.203h-17.221v22h22v-17.221l-9.203 9.221z"></path>
<path d="M25 8.947l2.049-2.054-1.943-1.943-2.053 2.049h1.947v1.947z"></path>
<path d="M13 19h1.968l10.032-10.053v-1.947h-1.947l-10.053 10.032v1.968z"></path>
</svg>
