<!-- Generated by IcoMoon.io -->
<svg version="1.1" xmlns="http://www.w3.org/2000/svg" width="32" height="32" viewBox="0 0 32 32">
<title>desktop</title>
<path d="M1 22c0.002 1.656 1.344 2.998 3 3h8.368l-0.25 2h-3.117c-0.552 0-1 0.448-1 1s0.448 1 1 1v0h14c0.552 0 1-0.448 1-1s-0.448-1-1-1v0h-3.117l-0.25-2h8.367c1.656-0.002 2.998-1.344 3-3v-3h-30zM16 21c0.552 0 1 0.448 1 1s-0.448 1-1 1c-0.552 0-1-0.448-1-1v0c0-0.552 0.448-1 1-1v0z"></path>
<path d="M31 6c-0.002-1.656-1.344-2.998-3-3h-24c-1.656 0.002-2.998 1.344-3 3v12h30z"></path>
</svg>
