<!-- Generated by IcoMoon.io -->
<svg version="1.1" xmlns="http://www.w3.org/2000/svg" width="32" height="32" viewBox="0 0 32 32">
<title>diamond-sharp</title>
<path d="M24.769 2h-8.269l5.262 7.016 3.008-7.016z"></path>
<path d="M7.231 2l3.008 7.016 5.262-7.016h-8.269z"></path>
<path d="M16 4.667l-4 5.333h8l-4-5.333z"></path>
<path d="M26.434 3.191l-2.918 6.809h6.984l-4.066-6.809z"></path>
<path d="M5.566 3.191l-4.128 6.809h7.046l-2.918-6.809z"></path>
<path d="M9.168 12h-7.668l13.925 18h0.033l-6.291-18z"></path>
<path d="M22.832 12l-6.291 18h0.033l13.925-18h-7.668z"></path>
<path d="M20.587 12h-9.174l4.587 13 4.587-13z"></path>
</svg>
