<!-- Generated by IcoMoon.io -->
<svg version="1.1" xmlns="http://www.w3.org/2000/svg" width="32" height="32" viewBox="0 0 32 32">
<title>dice-sharp</title>
<path d="M3 22.933l12 7.067v-12.25l-12-7.125zM12 18c0.553 0 1 0.672 1 1.5s-0.447 1.5-1 1.5-1-0.672-1-1.5 0.447-1.5 1-1.5zM6 20c0.553 0 1 0.672 1 1.5s-0.447 1.5-1 1.5-1-0.672-1-1.5 0.447-1.5 1-1.5z"></path>
<path d="M17 17.75v12.25l12-7.067v-12.307zM20 26.5c-0.552 0-1-0.672-1-1.5s0.448-1.5 1-1.5 1 0.672 1 1.5-0.448 1.5-1 1.5zM20 21c-0.552 0-1-0.672-1-1.5s0.448-1.5 1-1.5 1 0.672 1 1.5-0.448 1.5-1 1.5zM26 23c-0.552 0-1-0.672-1-1.5s0.448-1.5 1-1.5 1 0.672 1 1.5-0.448 1.5-1 1.5zM26 17.5c-0.552 0-1-0.672-1-1.5s0.448-1.5 1-1.5 1 0.672 1 1.5-0.448 1.5-1 1.5zM28 22.352v0z"></path>
<path d="M16 2l-12 7 12 7 12-7zM16 9.5c-0.828 0-1.5-0.447-1.5-1s0.672-1 1.5-1 1.5 0.447 1.5 1-0.672 1-1.5 1z"></path>
</svg>
