<!-- Generated by IcoMoon.io -->
<svg version="1.1" xmlns="http://www.w3.org/2000/svg" width="32" height="32" viewBox="0 0 32 32">
<title>documents-sharp</title>
<path d="M19.246 15.5l-5.746-5.843v5.468c0 0.207 0.168 0.375 0.375 0.375v0z"></path>
<path d="M11.5 16.75v-7.75h-7.75c-0.414 0-0.75 0.336-0.75 0.75v0 20.5c0 0.414 0.336 0.75 0.75 0.75v0h15.5c0.414 0 0.75-0.336 0.75-0.75v0-12.75h-7.75c-0.414 0-0.75-0.336-0.75-0.75v0z"></path>
<path d="M22.875 7.5h5.371l-5.746-5.843v5.468c0 0.207 0.168 0.375 0.375 0.375v0z"></path>
<path d="M21.25 9.5c-0.414 0-0.75-0.336-0.75-0.75v0-7.75h-9.75c-0.414 0-0.75 0.336-0.75 0.75v0 5.25h2.633c0.706 0.003 1.345 0.293 1.805 0.758l0 0 6.822 6.937c0.457 0.464 0.739 1.101 0.739 1.804 0 0.003 0 0.006-0 0.009v-0 8.491h6.251c0.414 0 0.75-0.336 0.75-0.75v0-14.75z"></path>
</svg>
