<!-- Generated by IcoMoon.io -->
<svg version="1.1" xmlns="http://www.w3.org/2000/svg" width="32" height="32" viewBox="0 0 32 32">
<title>duplicate</title>
<path d="M25.5 7h-14c-2.485 0-4.5 2.015-4.5 4.5v0 14c0 2.485 2.015 4.5 4.5 4.5v0h14c2.485 0 4.5-2.015 4.5-4.5v0-14c0-2.485-2.015-4.5-4.5-4.5v0zM23.472 19.5h-3.972v3.972c0 0.538-0.414 1-0.952 1.027-0.014 0.001-0.031 0.001-0.048 0.001-0.552 0-1-0.448-1-1v0-4h-3.972c-0.538 0-1-0.414-1.027-0.952-0.001-0.014-0.001-0.031-0.001-0.048 0-0.552 0.448-1 1-1h4v-3.972c0-0.538 0.414-1 0.952-1.027 0.014-0.001 0.031-0.001 0.048-0.001 0.552 0 1 0.448 1 1v0 4h4c0 0 0.001 0 0.001 0 0.552 0 1 0.448 1 1 0 0.017-0 0.034-0.001 0.050l0-0.002c-0.026 0.538-0.49 0.952-1.028 0.952z"></path>
<path d="M24.742 5c-0.638-1.761-2.296-2.998-4.242-3h-14c-2.485 0-4.5 2.015-4.5 4.5v0 14c0.002 1.947 1.239 3.604 2.969 4.233l0.031 0.010v-14.742c0-2.761 2.239-5 5-5v0z"></path>
</svg>
