<!-- Generated by IcoMoon.io -->
<svg version="1.1" xmlns="http://www.w3.org/2000/svg" width="32" height="32" viewBox="0 0 32 32">
<title>easel-sharp</title>
<path d="M29.25 4h-11.875v-2h-2.75v2h-11.875c-0.414 0-0.75 0.336-0.75 0.75v0 17.5c0 0.414 0.336 0.75 0.75 0.75v0h4.887l-2.016 6.404 2.283 0.601 2.205-7.004h4.516v4h2.75v-4h4.49l1.938 6.981 2.302-0.536-1.789-6.446h4.934c0.414 0 0.75-0.336 0.75-0.75v0-17.5c0-0.414-0.336-0.75-0.75-0.75v0zM27.625 20.625h-23.25v-14.25h23.25z"></path>
<path d="M5.5 7.5h21v12h-21v-12z"></path>
</svg>
