<!-- Generated by IcoMoon.io -->
<svg version="1.1" xmlns="http://www.w3.org/2000/svg" width="32" height="32" viewBox="0 0 32 32">
<title>ellipsis-horizontal-circle-sharp</title>
<path d="M16 3c-7.179 0-13 5.821-13 13s5.821 13 13 13 13-5.821 13-13-5.821-13-13-13zM10.375 17.625c-0.897 0-1.625-0.728-1.625-1.625s0.728-1.625 1.625-1.625c0.897 0 1.625 0.728 1.625 1.625v0c0 0.897-0.728 1.625-1.625 1.625v0zM16 17.625c-0.897 0-1.625-0.728-1.625-1.625s0.728-1.625 1.625-1.625c0.897 0 1.625 0.728 1.625 1.625v0c0 0.897-0.728 1.625-1.625 1.625v0zM21.625 17.625c-0.897 0-1.625-0.728-1.625-1.625s0.728-1.625 1.625-1.625c0.897 0 1.625 0.728 1.625 1.625v0c0 0.897-0.728 1.625-1.625 1.625v0z"></path>
</svg>
