<!-- Generated by IcoMoon.io -->
<svg version="1.1" xmlns="http://www.w3.org/2000/svg" width="32" height="32" viewBox="0 0 32 32">
<title>ellipsis-vertical-circle-sharp</title>
<path d="M29 16c0-7.179-5.821-13-13-13s-13 5.821-13 13 5.821 13 13 13 13-5.821 13-13zM14.375 10.375c0-0.897 0.728-1.625 1.625-1.625s1.625 0.728 1.625 1.625c0 0.897-0.728 1.625-1.625 1.625v0c-0.897 0-1.625-0.728-1.625-1.625v0zM14.375 16c0-0.897 0.728-1.625 1.625-1.625s1.625 0.728 1.625 1.625c0 0.897-0.728 1.625-1.625 1.625v0c-0.897 0-1.625-0.728-1.625-1.625v0zM14.375 21.625c0-0.897 0.728-1.625 1.625-1.625s1.625 0.728 1.625 1.625c0 0.897-0.728 1.625-1.625 1.625v0c-0.897 0-1.625-0.728-1.625-1.625v0z"></path>
</svg>
