<!-- Generated by IcoMoon.io -->
<svg version="1.1" xmlns="http://www.w3.org/2000/svg" width="32" height="32" viewBox="0 0 32 32">
<title>exit</title>
<path d="M21 23.5v-6.5h-9.063c-0.552 0-1-0.448-1-1s0.448-1 1-1v0h9.063v-6.5c-0.002-1.932-1.568-3.498-3.5-3.5h-12c-1.932 0.002-3.498 1.568-3.5 3.5v15c0.002 1.932 1.568 3.498 3.5 3.5h12c1.932-0.002 3.498-1.568 3.5-3.5v-0z"></path>
<path d="M26.586 17l-3.293 3.293c-0.17 0.179-0.275 0.422-0.275 0.689 0 0.552 0.448 1 1 1 0.267 0 0.51-0.105 0.689-0.275l5-5c0.181-0.181 0.293-0.431 0.293-0.707s-0.112-0.526-0.293-0.707l-5-5c-0.179-0.17-0.422-0.275-0.689-0.275-0.552 0-1 0.448-1 1 0 0.267 0.105 0.51 0.275 0.689l3.292 3.293h-5.586v2z"></path>
</svg>
