<!-- Generated by IcoMoon.io -->
<svg version="1.1" xmlns="http://www.w3.org/2000/svg" width="32" height="32" viewBox="0 0 32 32">
<title>file-tray</title>
<path d="M29.979 16.794l-2-9.488c-0.386-2.070-1.874-3.306-3.979-3.306h-16c-1.050 0-1.938 0.293-2.631 0.871s-1.148 1.394-1.349 2.431l-2 9.492c-0.013 0.061-0.020 0.131-0.020 0.203 0 0.001 0 0.002 0 0.003v-0 7c0 2.209 1.791 4 4 4v0h20c2.209 0 4-1.791 4-4v0-7c-0-0.073-0.008-0.144-0.022-0.213l0.001 0.007zM5.979 7.706c0-0.006 0-0.012 0-0.018 0.222-1.152 0.863-1.688 2.018-1.688h16.003c1.163 0 1.804 0.534 2.017 1.682 0 0.008 0.003 0.016 0.004 0.024l1.683 7.992c0.003 0.015 0.005 0.033 0.005 0.051 0 0.138-0.112 0.25-0.25 0.25-0 0-0 0-0 0h-7.459c-0.002 0-0.003 0-0.005 0-0.547 0-0.991 0.442-0.995 0.988v0c0 1.657-1.343 3-3 3s-3-1.343-3-3v0c-0.003-0.547-0.447-0.99-0.995-0.99-0.002 0-0.004 0-0.005 0h-7.459c-0 0-0 0-0 0-0.138 0-0.25-0.112-0.25-0.25 0-0.018 0.002-0.036 0.006-0.053l-0 0.002z"></path>
</svg>
