<!-- Generated by IcoMoon.io -->
<svg version="1.1" xmlns="http://www.w3.org/2000/svg" width="32" height="32" viewBox="0 0 32 32">
<title>film</title>
<path d="M27.25 5h-22.5c-1.518 0.002-2.748 1.232-2.75 2.75v16.5c0.002 1.518 1.232 2.748 2.75 2.75h22.5c1.518-0.002 2.748-1.232 2.75-2.75v-16.5c-0.002-1.518-1.232-2.748-2.75-2.75h-0zM7 24.25c0 0.414-0.336 0.75-0.75 0.75v0h-1.5c-0.414 0-0.75-0.336-0.75-0.75v0-1.5c0-0.414 0.336-0.75 0.75-0.75v0h1.5c0.414 0 0.75 0.336 0.75 0.75v0zM7 19.25c0 0.414-0.336 0.75-0.75 0.75v0h-1.5c-0.414 0-0.75-0.336-0.75-0.75v0-1.5c0-0.414 0.336-0.75 0.75-0.75v0h1.5c0.414 0 0.75 0.336 0.75 0.75v0zM7 14.25c0 0.414-0.336 0.75-0.75 0.75v0h-1.5c-0.414 0-0.75-0.336-0.75-0.75v0-1.5c0-0.414 0.336-0.75 0.75-0.75v0h1.5c0.414 0 0.75 0.336 0.75 0.75v0zM7 9.25c0 0.414-0.336 0.75-0.75 0.75v0h-1.5c-0.414 0-0.75-0.336-0.75-0.75v0-1.5c0-0.414 0.336-0.75 0.75-0.75v0h1.5c0.414 0 0.75 0.336 0.75 0.75v0zM22.105 17h-12.21c-0.552 0-1-0.448-1-1s0.448-1 1-1v0h12.21c0.552 0 1 0.448 1 1s-0.448 1-1 1v0zM28 24.25c0 0.414-0.336 0.75-0.75 0.75v0h-1.5c-0.414 0-0.75-0.336-0.75-0.75v0-1.5c0-0.414 0.336-0.75 0.75-0.75v0h1.5c0.414 0 0.75 0.336 0.75 0.75v0zM28 19.25c0 0.414-0.336 0.75-0.75 0.75v0h-1.5c-0.414 0-0.75-0.336-0.75-0.75v0-1.5c0-0.414 0.336-0.75 0.75-0.75v0h1.5c0.414 0 0.75 0.336 0.75 0.75v0zM28 14.25c0 0.414-0.336 0.75-0.75 0.75v0h-1.5c-0.414 0-0.75-0.336-0.75-0.75v0-1.5c0-0.414 0.336-0.75 0.75-0.75v0h1.5c0.414 0 0.75 0.336 0.75 0.75v0zM28 9.25c0 0.414-0.336 0.75-0.75 0.75v0h-1.5c-0.414 0-0.75-0.336-0.75-0.75v0-1.5c0-0.414 0.336-0.75 0.75-0.75v0h1.5c0.414 0 0.75 0.336 0.75 0.75v0z"></path>
</svg>
