<!-- Generated by IcoMoon.io -->
<svg version="1.1" xmlns="http://www.w3.org/2000/svg" width="32" height="32" viewBox="0 0 32 32">
<title>filter</title>
<path d="M29.5 10.5h-27c-0.828 0-1.5-0.672-1.5-1.5s0.672-1.5 1.5-1.5v0h27c0.828 0 1.5 0.672 1.5 1.5s-0.672 1.5-1.5 1.5v0z"></path>
<path d="M24.5 17.5h-17c-0.828 0-1.5-0.672-1.5-1.5s0.672-1.5 1.5-1.5v0h17c0.828 0 1.5 0.672 1.5 1.5s-0.672 1.5-1.5 1.5v0z"></path>
<path d="M18.5 24.5h-5c-0.828 0-1.5-0.672-1.5-1.5s0.672-1.5 1.5-1.5v0h5c0.828 0 1.5 0.672 1.5 1.5s-0.672 1.5-1.5 1.5v0z"></path>
</svg>
