<!-- Generated by IcoMoon.io -->
<svg version="1.1" xmlns="http://www.w3.org/2000/svg" width="32" height="32" viewBox="0 0 32 32">
<title>filter-circle</title>
<path d="M16 3c-7.168 0-13 5.832-13 13s5.832 13 13 13 13-5.832 13-13-5.832-13-13-13zM18 22h-4c-0.552 0-1-0.448-1-1s0.448-1 1-1v0h4c0.552 0 1 0.448 1 1s-0.448 1-1 1v0zM21 18h-10c-0.552 0-1-0.448-1-1s0.448-1 1-1v0h10c0.552 0 1 0.448 1 1s-0.448 1-1 1v0zM23 14h-14c-0.552 0-1-0.448-1-1s0.448-1 1-1v0h14c0.552 0 1 0.448 1 1s-0.448 1-1 1v0z"></path>
</svg>
