<!-- Generated by IcoMoon.io -->
<svg version="1.1" xmlns="http://www.w3.org/2000/svg" width="32" height="32" viewBox="0 0 32 32">
<title>flag-sharp</title>
<path d="M6.375 30h-2.375v-26.414l0.293-0.292c0.216-0.216 1.506-1.293 5.707-1.293 2.326 0 4.927 0.919 7.222 1.73 1.848 0.653 3.594 1.27 4.778 1.27 2.677 0 4.545-0.891 4.563-0.9l1.438-0.696v16.214l-0.552 0.276c-0.091 0.043-2.248 1.106-5.448 1.106-1.509 0-3.399-0.446-5.399-0.919-2.249-0.531-4.574-1.081-6.601-1.081-2.304 0-3.109 0.349-3.625 0.569z"></path>
</svg>
