<!-- Generated by IcoMoon.io -->
<svg version="1.1" xmlns="http://www.w3.org/2000/svg" width="32" height="32" viewBox="0 0 32 32">
<title>folder-open-sharp</title>
<path d="M1.005 11.838l1.786 14.617c0.106 0.875 0.844 1.546 1.738 1.546 0.001 0 0.002 0 0.003 0h22.937c0.001 0 0.002 0 0.003 0 0.894 0 1.632-0.671 1.737-1.537l0.001-0.008 1.784-14.617c0.003-0.026 0.005-0.057 0.005-0.088 0-0.414-0.336-0.75-0.75-0.75-0 0-0 0-0 0h-28.5c-0 0-0 0-0 0-0.414 0-0.75 0.336-0.75 0.75 0 0.031 0.002 0.061 0.005 0.091l-0-0.004z"></path>
<path d="M29 7.75c0-0.966-0.784-1.75-1.75-1.75v0h-11.947l-3-2h-7.553c-0.966 0-1.75 0.784-1.75 1.75v0 3.25h26z"></path>
</svg>
