<!-- Generated by IcoMoon.io -->
<svg version="1.1" xmlns="http://www.w3.org/2000/svg" width="32" height="32" viewBox="0 0 32 32">
<title>folder-open</title>
<path d="M25.5 6h-9.743c-0.001 0-0.003 0-0.005 0-0.308 0-0.595-0.093-0.832-0.253l0.005 0.003-1.738-1.162c-0.544-0.368-1.215-0.588-1.938-0.588-0.002 0-0.005 0-0.007 0h-4.743c-1.932 0.002-3.498 1.568-3.5 3.5v1.5h26c0-1.93-1.57-3-3.5-3z"></path>
<path d="M26.484 28h-20.969c-1.913-0.002-3.466-1.538-3.496-3.444l-0-0.003-1.009-10.296v-0.018c-0.006-0.072-0.010-0.155-0.010-0.239 0-1.656 1.342-2.999 2.998-3h24.006c1.656 0.002 2.997 1.344 2.997 3 0 0.084-0.003 0.168-0.010 0.25l0.001-0.011v0.018l-1.014 10.296c-0.030 1.909-1.583 3.445-3.495 3.447h-0zM29.994 14.159v0z"></path>
</svg>
