<!-- Generated by IcoMoon.io -->
<svg version="1.1" xmlns="http://www.w3.org/2000/svg" width="32" height="32" viewBox="0 0 32 32">
<title>footsteps</title>
<path d="M8.364 22.579c-1.413 0-2.563-0.511-3.424-1.524s-1.428-2.518-1.757-4.707c-0.485-3.226-0.004-5.944 1.355-7.655 0.8-1.008 1.85-1.59 3.036-1.684 1.016-0.081 2.534 0.331 4 2.75 0.918 1.515 1.616 3.527 1.916 5.521v0c0.362 2.407 0.092 4.179-0.824 5.416-0.728 0.983-1.846 1.591-3.326 1.813-0.291 0.045-0.626 0.071-0.967 0.071-0.003 0-0.007 0-0.010 0h0.001z"></path>
<path d="M10.813 31c-0.826 0-1.662-0.264-2.416-0.773-1.067-0.73-1.827-1.84-2.090-3.13l-0.005-0.032c-0.178-0.916-0.071-1.644 0.326-2.227 0.646-0.947 1.804-1.16 3.031-1.386 0.129-0.024 0.261-0.047 0.394-0.073 0.283-0.054 0.571-0.125 0.851-0.194 1.049-0.259 2.134-0.527 3.029 0.109 0.599 0.425 0.938 1.148 1.039 2.207v0c0.115 1.223-0.148 2.444-0.739 3.438-0.637 1.069-1.592 1.776-2.688 1.991-0.22 0.045-0.472 0.071-0.73 0.071-0.001 0-0.001 0-0.002 0h0z"></path>
<path d="M23.636 16.579c-0.345-0.001-0.683-0.028-1.012-0.080l0.038 0.005c-1.479-0.219-2.598-0.828-3.325-1.813-0.916-1.237-1.188-3.008-0.824-5.416 0.299-1.996 0.996-4.006 1.909-5.516 1.459-2.411 2.979-2.829 4-2.755 1.183 0.086 2.231 0.661 3.032 1.663 1.368 1.711 1.853 4.438 1.366 7.678-0.329 2.188-0.887 3.684-1.757 4.707s-2.014 1.527-3.427 1.527z"></path>
<path d="M21.188 25c-0.258-0-0.511-0.026-0.754-0.075l0.024 0.004c-1.098-0.215-2.052-0.922-2.688-1.991-0.592-0.994-0.854-2.214-0.739-3.438v0c0.1-1.063 0.438-1.782 1.039-2.208 0.896-0.636 1.981-0.368 3.029-0.109 0.28 0.069 0.569 0.14 0.851 0.194l0.393 0.073c1.227 0.226 2.386 0.438 3.031 1.386 0.398 0.583 0.504 1.313 0.326 2.227-0.267 1.323-1.028 2.433-2.078 3.152l-0.017 0.011c-0.758 0.509-1.595 0.773-2.418 0.773z"></path>
</svg>
