<!-- Generated by IcoMoon.io -->
<svg version="1.1" xmlns="http://www.w3.org/2000/svg" width="32" height="32" viewBox="0 0 32 32">
<title>footsteps-sharp</title>
<path d="M8.159 22.394c-0.802 0.117-2.122 0.336-3-0.66s-1.638-3.402-1.971-5.552c-0.493-3.169-0.004-5.839 1.375-7.519 0.813-0.989 1.879-1.563 3.084-1.654 1.032-0.079 2.574 0.324 4.063 2.699 0.932 1.488 1.642 3.465 1.946 5.423v0c0.367 2.364 0.726 4.886-0.527 5.791-0.707 0.511-1.214 0.688-2.414 0.973-0.986 0.234-1.752 0.381-2.555 0.499z"></path>
<path d="M6.732 24.427l6.806-1.404c0.575-0.119 1.036 0.198 1.25 1.145 0.701 3.11-0.304 6.831-3.451 6.831-2.981 0-4.967-3.398-5.291-5.224-0.148-0.828 0.063-1.221 0.687-1.349z"></path>
<path d="M21.287 15.896c-1.199-0.284-1.707-0.463-2.414-0.973-1.253-0.904-0.895-3.427-0.527-5.791v0c0.304-1.958 1.014-3.938 1.946-5.423 1.488-2.375 3.029-2.779 4.063-2.699 1.204 0.092 2.271 0.664 3.083 1.653 1.38 1.68 1.869 4.351 1.375 7.519-0.334 2.15-1.091 4.547-1.974 5.552s-2.196 0.777-3 0.66-1.566-0.264-2.551-0.498z"></path>
<path d="M25.267 18.427l-6.806-1.404c-0.575-0.119-1.036 0.198-1.25 1.145-0.701 3.11 0.304 6.831 3.452 6.831 2.981 0 4.967-3.398 5.291-5.224 0.148-0.828-0.064-1.221-0.688-1.349z"></path>
</svg>
