<!-- Generated by IcoMoon.io -->
<svg version="1.1" xmlns="http://www.w3.org/2000/svg" width="32" height="32" viewBox="0 0 32 32">
<title>game-controller</title>
<path d="M30.196 15.336c-1.326-5.993-3.321-9.192-6.28-10.066-0.564-0.172-1.213-0.271-1.885-0.271-0.011 0-0.022 0-0.033 0h0.002c-0.857 0-1.603 0.209-2.393 0.43-0.951 0.267-2.032 0.57-3.607 0.57s-2.657-0.303-3.61-0.569c-0.79-0.222-1.536-0.431-2.39-0.431-0.007-0-0.016-0-0.025-0-0.697 0-1.371 0.099-2.009 0.283l0.051-0.013c-2.944 0.87-4.938 4.067-6.282 10.063-1.446 6.451-0.734 10.524 1.996 11.469 0.347 0.126 0.747 0.2 1.164 0.201h0.001c1.871 0 3.371-1.558 4.396-2.834 1.158-1.444 2.514-2.176 6.709-2.176 3.747 0 5.298 0.508 6.637 2.176 0.842 1.049 1.637 1.782 2.431 2.244 1.056 0.614 2.111 0.75 3.135 0.398 1.614-0.551 2.539-2.006 2.75-4.328 0.161-1.78-0.087-4.118-0.758-7.148zM13 15h-2v2c0 0.552-0.448 1-1 1s-1-0.448-1-1v0-2h-2c-0.552 0-1-0.448-1-1s0.448-1 1-1v0h2v-2c0-0.552 0.448-1 1-1s1 0.448 1 1v0 2h2c0.552 0 1 0.448 1 1s-0.448 1-1 1v0zM18.25 15.25c-0.69 0-1.25-0.56-1.25-1.25s0.56-1.25 1.25-1.25c0.69 0 1.25 0.56 1.25 1.25v0c0 0.69-0.56 1.25-1.25 1.25v0zM21 18c-0.69 0-1.25-0.56-1.25-1.25s0.56-1.25 1.25-1.25c0.69 0 1.25 0.56 1.25 1.25 0 0.001 0 0.002 0 0.003v-0c-0.002 0.689-0.561 1.247-1.25 1.247 0 0 0 0 0 0v0zM21 12.5c-0.69 0-1.25-0.56-1.25-1.25s0.56-1.25 1.25-1.25c0.69 0 1.25 0.56 1.25 1.25v0c0 0.69-0.56 1.25-1.25 1.25v0zM23.75 15.25c-0.69 0-1.25-0.56-1.25-1.25s0.56-1.25 1.25-1.25c0.69 0 1.25 0.56 1.25 1.25v0c0 0.69-0.56 1.25-1.25 1.25v0z"></path>
</svg>
