<!-- Generated by IcoMoon.io -->
<svg version="1.1" xmlns="http://www.w3.org/2000/svg" width="32" height="32" viewBox="0 0 32 32">
<title>git-branch-sharp</title>
<path d="M22 6c-2.209 0-3.999 1.791-3.999 4 0 0.567 0.118 1.107 0.331 1.595l-0.010-0.026-6.321 5.5v-7.607c1.204-0.704 2-1.991 2-3.464 0-2.209-1.791-4-4-4s-4 1.791-4 4c0 1.473 0.796 2.76 1.981 3.454l0.019 0.010v13.076c-1.204 0.704-2 1.991-2 3.464 0 2.209 1.791 4 4 4s4-1.791 4-4c0-1.473-0.796-2.76-1.981-3.454l-0.019-0.010v-0.163l9.641-8.392c0.119 0.011 0.238 0.017 0.359 0.017 2.209 0 4-1.791 4-4s-1.791-4-4-4v0zM10 4c1.105 0 2 0.895 2 2s-0.895 2-2 2c-1.105 0-2-0.895-2-2v0c0-1.105 0.895-2 2-2v0zM10 28c-1.105 0-2-0.895-2-2s0.895-2 2-2c1.105 0 2 0.895 2 2v0c0 1.105-0.895 2-2 2v0zM22 12c-1.105 0-2-0.895-2-2s0.895-2 2-2c1.105 0 2 0.895 2 2v0c0 1.105-0.895 2-2 2v0z"></path>
</svg>
