<!-- Generated by IcoMoon.io -->
<svg version="1.1" xmlns="http://www.w3.org/2000/svg" width="32" height="32" viewBox="0 0 32 32">
<title>grid</title>
<path d="M12.75 15h-8.5c-1.243 0-2.25-1.007-2.25-2.25v0-8.5c0-1.243 1.007-2.25 2.25-2.25v0h8.5c1.243 0 2.25 1.007 2.25 2.25v0 8.5c0 1.243-1.007 2.25-2.25 2.25v0z"></path>
<path d="M27.75 15h-8.5c-1.243 0-2.25-1.007-2.25-2.25v0-8.5c0-1.243 1.007-2.25 2.25-2.25v0h8.5c1.243 0 2.25 1.007 2.25 2.25v0 8.5c0 1.243-1.007 2.25-2.25 2.25v0z"></path>
<path d="M12.75 30h-8.5c-1.243 0-2.25-1.007-2.25-2.25v0-8.5c0-1.243 1.007-2.25 2.25-2.25v0h8.5c1.243 0 2.25 1.007 2.25 2.25v0 8.5c0 1.243-1.007 2.25-2.25 2.25v0z"></path>
<path d="M27.75 30h-8.5c-1.243 0-2.25-1.007-2.25-2.25v0-8.5c0-1.243 1.007-2.25 2.25-2.25v0h8.5c1.243 0 2.25 1.007 2.25 2.25v0 8.5c0 1.243-1.007 2.25-2.25 2.25v0z"></path>
</svg>
