<!-- Generated by IcoMoon.io -->
<svg version="1.1" xmlns="http://www.w3.org/2000/svg" width="32" height="32" viewBox="0 0 32 32">
<title>happy-sharp</title>
<path d="M25.899 6.101c-2.538-2.563-6.058-4.149-9.948-4.149-7.732 0-14 6.268-14 14 0 3.89 1.587 7.41 4.148 9.947l0.001 0.001c2.538 2.563 6.058 4.149 9.948 4.149 7.732 0 14-6.268 14-14 0-3.89-1.587-7.41-4.148-9.947l-0.001-0.001zM20.5 13c0.828 0 1.5 0.672 1.5 1.5s-0.672 1.5-1.5 1.5c-0.828 0-1.5-0.672-1.5-1.5v0c0-0.001 0-0.002 0-0.004 0-0.826 0.67-1.496 1.496-1.496 0.001 0 0.003 0 0.004 0h-0zM11.5 13c0.828 0 1.5 0.672 1.5 1.5s-0.672 1.5-1.5 1.5c-0.828 0-1.5-0.672-1.5-1.5v0c0-0.001 0-0.002 0-0.004 0-0.826 0.67-1.496 1.496-1.496 0.001 0 0.003 0 0.004 0h-0zM16.003 24c-2.839 0-5.234-1.843-5.982-4.364-0.065-0.22-0.146-0.636-0.146-0.636h12.25s-0.082 0.418-0.146 0.636c-0.736 2.523-3.137 4.364-5.976 4.364z"></path>
</svg>
