<!-- Generated by IcoMoon.io -->
<svg version="1.1" xmlns="http://www.w3.org/2000/svg" width="32" height="32" viewBox="0 0 32 32">
<title>hardware-chip-sharp</title>
<path d="M10 10h12v12h-12v-12z"></path>
<path d="M30 12.375v-2.75h-2v-4.125c0-0.828-0.672-1.5-1.5-1.5v0h-4.125v-2h-2.75v2h-2.25v-2h-2.75v2h-2.25v-2h-2.75v2h-4.125c-0.828 0-1.5 0.672-1.5 1.5v0 4.125h-2v2.75h2v2.25h-2v2.75h2v2.25h-2v2.75h2v4.125c0 0.828 0.672 1.5 1.5 1.5v0h4.125v2h2.75v-2h2.25v2h2.75v-2h2.25v2h2.75v-2h4.125c0.828 0 1.5-0.672 1.5-1.5v0-4.125h2v-2.75h-2v-2.25h2v-2.75h-2v-2.25zM8 8h16v16h-16z"></path>
</svg>
