<!-- Generated by IcoMoon.io -->
<svg version="1.1" xmlns="http://www.w3.org/2000/svg" width="32" height="32" viewBox="0 0 32 32">
<title>heart-half</title>
<path d="M22.058 4c-3.006 0-5 1.846-6.058 3.188-1.055-1.343-3.052-3.188-6.058-3.188-3.789 0-6.903 3.159-6.942 7.041-0.034 3.388 1.164 6.517 3.663 9.562 1.173 1.43 3.3 3.716 8.212 7.051 0.315 0.218 0.705 0.349 1.125 0.349s0.81-0.13 1.132-0.353l-0.007 0.004c4.912-3.334 7.039-5.621 8.212-7.051 2.5-3.046 3.697-6.175 3.663-9.563-0.039-3.882-3.154-7.041-6.942-7.041zM16 26v-13.026c0-1.227 0.327-2.422 0.888-3.514 0.002-0.004 0.003-0.007 0.005-0.010l-0 0c0.382-0.682 0.834-1.268 1.359-1.78l0.002-0.002c1.133-1.106 2.413-1.668 3.804-1.668 2.697 0 4.914 2.27 4.942 5.062 0.063 6.538-5.523 11.219-10.999 14.938z"></path>
</svg>
