<!-- Generated by IcoMoon.io -->
<svg version="1.1" xmlns="http://www.w3.org/2000/svg" width="32" height="32" viewBox="0 0 32 32">
<title>id-card</title>
<path d="M23 1h-14c-2.208 0.002-3.998 1.792-4 4v22c0.003 2.208 1.792 3.997 4 4h14c2.208-0.003 3.997-1.792 4-4v-22c-0.003-2.208-1.792-3.998-4-4h-0zM20.843 17.782c0.473 0.511 0.704 1.198 0.649 1.934-0.108 1.466-1.226 2.659-2.492 2.659s-2.386-1.193-2.492-2.659c-0.054-0.744 0.176-1.432 0.646-1.938s1.121-0.778 1.846-0.778c0.011-0 0.023-0 0.036-0 0.712 0 1.354 0.3 1.806 0.781l0.001 0.001zM12 5c0-0.552 0.448-1 1-1v0h6c0.552 0 1 0.448 1 1s-0.448 1-1 1v0h-6c-0.552 0-1-0.448-1-1v0zM23.813 27.739c-0.139 0.16-0.343 0.261-0.57 0.261-0.004 0-0.008-0-0.013-0h-8.461c-0.004 0-0.008 0-0.012 0-0.227 0-0.431-0.101-0.569-0.26l-0.001-0.001c-0.117-0.14-0.189-0.322-0.189-0.521 0-0.057 0.006-0.113 0.017-0.167l-0.001 0.005c0.203-1.098 0.836-2.019 1.831-2.666 0.884-0.574 2.004-0.891 3.154-0.891s2.27 0.316 3.154 0.891c0.995 0.647 1.628 1.569 1.831 2.666 0.010 0.049 0.016 0.105 0.016 0.162 0 0.199-0.071 0.381-0.19 0.522l0.001-0.001z"></path>
</svg>
