<!-- Generated by IcoMoon.io -->
<svg version="1.1" xmlns="http://www.w3.org/2000/svg" width="32" height="32" viewBox="0 0 32 32">
<title>id-card-sharp</title>
<path d="M25.5 1h-19c-0.828 0-1.5 0.672-1.5 1.5v0 27c0 0.828 0.672 1.5 1.5 1.5v0h19c0.828 0 1.5-0.672 1.5-1.5v0-27c0-0.828-0.672-1.5-1.5-1.5v0zM21.681 19.548c0.002 0.042 0.004 0.090 0.004 0.14 0 1.484-1.203 2.688-2.688 2.688s-2.688-1.203-2.688-2.688c0-1.484 1.203-2.688 2.688-2.688 0.049 0 0.098 0.001 0.146 0.004l-0.007-0c1.375 0.074 2.471 1.17 2.544 2.538l0 0.007zM12 4h8v2h-8zM24 28h-10v-1.538c0-2.045 3.329-3.076 5-3.076s5 1.031 5 3.076z"></path>
</svg>
