<!-- Generated by IcoMoon.io -->
<svg version="1.1" xmlns="http://www.w3.org/2000/svg" width="32" height="32" viewBox="0 0 32 32">
<title>images-sharp</title>
<path d="M5 8.25v20.5c0 0.69 0.56 1.25 1.25 1.25v0h24.5c0.69 0 1.25-0.56 1.25-1.25v0-20.5c0-0.69-0.56-1.25-1.25-1.25v0h-24.5c-0.69 0-1.25 0.56-1.25 1.25v0zM23.321 10.833c1.58 0.010 2.858 1.293 2.858 2.875 0 1.588-1.287 2.875-2.875 2.875s-2.875-1.287-2.875-2.875v0c0.007-1.589 1.297-2.875 2.887-2.875 0.002 0 0.004 0 0.006 0h-0zM6.983 28.083v-5.968l7.673-6.887 5.861 5.834-7.063 7.021zM30 28.083h-13.813l9.036-9 4.776 4.079z"></path>
<path d="M1.25 2c-0.69 0-1.25 0.56-1.25 1.25v0 21.5c0 0.69 0.56 1.25 1.25 1.25v0h1.75v-19.75c0-0.69 0.56-1.25 1.25-1.25v0h23.75v-1.75c0-0.69-0.56-1.25-1.25-1.25v0z"></path>
</svg>
