<!-- Generated by IcoMoon.io -->
<svg version="1.1" xmlns="http://www.w3.org/2000/svg" width="32" height="32" viewBox="0 0 32 32">
<title>image-sharp</title>
<path d="M28.5 4h-25c-0.828 0-1.5 0.672-1.5 1.5v0 21c0 0.828 0.672 1.5 1.5 1.5v0h25c0.828 0 1.5-0.672 1.5-1.5v0-21c0-0.828-0.672-1.5-1.5-1.5v0zM20.726 8.012c0.082-0.008 0.177-0.013 0.274-0.013 1.657 0 3 1.343 3 3s-1.343 3-3 3c-1.657 0-3-1.343-3-3 0-0.096 0.005-0.192 0.013-0.286l-0.001 0.012c0.136-1.441 1.273-2.578 2.702-2.713l0.012-0.001zM4.75 26c-0.414 0-0.75-0.336-0.75-0.75v0-5.477l8.040-7.148 6.059 6.047-7.326 7.328zM28 25.25c0 0.414-0.336 0.75-0.75 0.75v0h-13.648l9.346-9.346 5.053 4.211z"></path>
</svg>
