<!-- Generated by IcoMoon.io -->
<svg version="1.1" xmlns="http://www.w3.org/2000/svg" width="32" height="32" viewBox="0 0 32 32">
<title>information-circle</title>
<path d="M16 3.5c-6.893 0-12.5 5.607-12.5 12.5s5.607 12.5 12.5 12.5 12.5-5.608 12.5-12.5-5.608-12.5-12.5-12.5zM16 8.625c0.897 0 1.625 0.728 1.625 1.625s-0.728 1.625-1.625 1.625c-0.897 0-1.625-0.728-1.625-1.625v0c0-0.897 0.728-1.625 1.625-1.625v0zM19 22.75h-5.5c-0.552 0-1-0.448-1-1s0.448-1 1-1v0h1.75v-5.5h-1c-0.552 0-1-0.448-1-1s0.448-1 1-1v0h2c0.552 0 1 0.448 1 1v0 6.5h1.75c0.552 0 1 0.448 1 1s-0.448 1-1 1v0z"></path>
</svg>
