<!-- Generated by IcoMoon.io -->
<svg version="1.1" xmlns="http://www.w3.org/2000/svg" width="32" height="32" viewBox="0 0 32 32">
<title>list-circle</title>
<path d="M16 3c-7.168 0-13 5.832-13 13s5.832 13 13 13 13-5.832 13-13-5.832-13-13-13zM10.5 21.875c-0.828 0-1.5-0.672-1.5-1.5s0.672-1.5 1.5-1.5c0.828 0 1.5 0.672 1.5 1.5v0c0 0.828-0.672 1.5-1.5 1.5v0zM10.5 17.438c-0.828 0-1.5-0.672-1.5-1.5s0.672-1.5 1.5-1.5c0.828 0 1.5 0.672 1.5 1.5v0c0 0.828-0.672 1.5-1.5 1.5v0zM10.5 12.875c-0.828 0-1.5-0.672-1.5-1.5s0.672-1.5 1.5-1.5c0.828 0 1.5 0.672 1.5 1.5v0c0 0.828-0.672 1.5-1.5 1.5v0zM22 21.313h-8c-0.552 0-1-0.448-1-1s0.448-1 1-1v0h8c0.552 0 1 0.448 1 1s-0.448 1-1 1v0zM22 16.875h-8c-0.552 0-1-0.448-1-1s0.448-1 1-1v0h8c0.552 0 1 0.448 1 1s-0.448 1-1 1v0zM22 12.375h-8c-0.552 0-1-0.448-1-1s0.448-1 1-1v0h8c0.552 0 1 0.448 1 1s-0.448 1-1 1v0z"></path>
</svg>
