<!-- Generated by IcoMoon.io -->
<svg version="1.1" xmlns="http://www.w3.org/2000/svg" width="32" height="32" viewBox="0 0 32 32">
<title>list-circle-sharp</title>
<path d="M16 3c-7.168 0-13 5.832-13 13s5.832 13 13 13 13-5.832 13-13-5.832-13-13-13zM12 20.969c0 0.552-0.448 1-1 1v0h-1c-0.552 0-1-0.448-1-1v0-1c0-0.552 0.448-1 1-1v0h1c0.552 0 1 0.448 1 1v0zM12 16.531c0 0.552-0.448 1-1 1v0h-1c-0.552 0-1-0.448-1-1v0-1c0-0.552 0.448-1 1-1v0h1c0.552 0 1 0.448 1 1v0zM12 12.031c0 0.552-0.448 1-1 1v0h-1c-0.552 0-1-0.448-1-1v0-1c0-0.552 0.448-1 1-1v0h1c0.552 0 1 0.448 1 1v0zM23 21.469h-9.708v-2h9.708zM23 17.031h-9.708v-2h9.708zM23 12.531h-9.708v-2h9.708z"></path>
</svg>
