<!-- Generated by IcoMoon.io -->
<svg version="1.1" xmlns="http://www.w3.org/2000/svg" width="32" height="32" viewBox="0 0 32 32">
<title>logo-rss</title>
<path d="M6.785 21.424c-2.077 0.008-3.757 1.693-3.757 3.771 0 2.083 1.688 3.771 3.771 3.771 2.081 0 3.768-1.685 3.771-3.765v-0c-0.007-2.086-1.698-3.775-3.785-3.777h-0z"></path>
<path d="M3 11.667v5.409c3.25 0 6.371 0.962 8.667 3.257s3.25 5.41 3.25 8.667h5.416c0-9.473-7.854-17.333-17.333-17.333z"></path>
<path d="M3 3v5.41c11.578 0 20.576 9.005 20.576 20.59h5.424c0-14.334-11.646-26-26-26z"></path>
</svg>
