<!-- Generated by IcoMoon.io -->
<svg version="1.1" xmlns="http://www.w3.org/2000/svg" width="32" height="32" viewBox="0 0 32 32">
<title>logo-tableau</title>
<path d="M15.168 21.269h1.664v-4.537h4.188v-1.614h-4.188v-4.537h-1.664v4.537h-4.134v1.614h4.134z"></path>
<path d="M7.454 27.824h1.412v-4.034h3.731v-1.261h-3.731v-4.084h-1.412v4.084h-3.731v1.261h3.731z"></path>
<path d="M23.134 13.25h1.412v-4.031h3.781v-1.211h-3.781v-4.084h-1.412v4.084h-3.731v1.211h3.731z"></path>
<path d="M15.42 31h1.21v-2.875h2.572v-1.058h-2.572v-2.875h-1.21v2.875h-2.521v1.058h2.521z"></path>
<path d="M7.504 13.25h1.313v-4.082h3.782v-1.16h-3.786v-4.084h-1.313v4.084h-3.777v1.16h3.782z"></path>
<path d="M27.233 19.302h1.21v-2.824h2.558v-1.109h-2.558v-2.824h-1.21v2.824h-2.521v1.109h2.521z"></path>
<path d="M23.134 27.824h1.412v-4.034h3.781v-1.261h-3.781v-4.084h-1.412v4.084h-3.731v1.261h3.731z"></path>
<path d="M19.188 4.63v-0.857h-2.521v-2.773h-0.908v2.773h-2.521v0.857h2.521v2.773h0.907v-2.773zM3.507 19.101h0.907v-2.773h2.523v-0.857h-2.523v-2.721h-0.907v2.723h-2.507v0.907l2.507-0.005z"></path>
</svg>
