<!-- Generated by IcoMoon.io -->
<svg version="1.1" xmlns="http://www.w3.org/2000/svg" width="32" height="32" viewBox="0 0 32 32">
<title>logo-designernews</title>
<path d="M18.457 7.675l-4.528-3.675 4.543 7.665-0.014-3.99z"></path>
<path d="M21.214 4v12.225h-2.6l-4.514-7.395 0.121 7.395h-2.864v-8.025l-2.664-2.2c0.071 0.090 0.143 0.18 0.207 0.277 0.714 1.042 1.071 2.288 1.071 3.788 0 3.688-2.188 6.157-5.492 6.157h-4.479v0.030l14.257 11.747h17.743v-15.143z"></path>
<path d="M6.993 10.158c0-2.175-1.014-3.383-2.836-3.383h-1.371v6.675h1.357c1.857 0 2.85-1.155 2.85-3.293z"></path>
</svg>
