<!-- Generated by IcoMoon.io -->
<svg version="1.1" xmlns="http://www.w3.org/2000/svg" width="32" height="32" viewBox="0 0 32 32">
<title>logo-apple</title>
<path d="M21.821 8.554c-2.52 0-3.585 1.203-5.34 1.203-1.799 0-3.172-1.194-5.356-1.194-2.137 0-4.417 1.305-5.864 3.528-2.033 3.135-1.688 9.039 1.604 14.069 1.178 1.801 2.75 3.82 4.813 3.842h0.037c1.793 0 2.325-1.174 4.792-1.188h0.038c2.43 0 2.918 1.181 4.703 1.181h0.038c2.063-0.022 3.719-2.259 4.897-4.053 0.848-1.29 1.163-1.938 1.813-3.397-4.762-1.808-5.527-8.558-0.817-11.146-1.438-1.8-3.457-2.842-5.362-2.842z"></path>
<path d="M21.266 2c-1.5 0.102-3.25 1.057-4.275 2.304-0.93 1.13-1.695 2.806-1.395 4.432h0.12c1.597 0 3.232-0.962 4.188-2.194 0.92-1.173 1.617-2.836 1.363-4.541z"></path>
</svg>
