<!-- Generated by IcoMoon.io -->
<svg version="1.1" xmlns="http://www.w3.org/2000/svg" width="32" height="32" viewBox="0 0 32 32">
<title>logo-foursquare</title>
<path d="M23.547 2h-14.889c-2.054 0-2.659 1.55-2.659 2.526v23.727c0 1.099 0.589 1.508 0.92 1.642s1.244 0.25 1.792-0.386c0 0 7.029-8.181 7.15-8.302 0.182-0.183 0.182-0.183 0.365-0.183h4.548c1.911 0 2.218-1.367 2.418-2.172 0.166-0.674 2.030-10.25 2.653-13.285 0.475-2.317-0.113-3.567-2.299-3.567zM23.193 18.852c0.166-0.674 2.030-10.25 2.653-13.285zM22.668 6.042l-0.625 3.233c-0.074 0.353-0.517 0.725-0.929 0.725h-5.995c-0.652 0-1.119 0.384-1.119 1.037v0.841c0 0.654 0.47 1.118 1.125 1.118h5.116c0.461 0 0.913 0.507 0.813 1s-0.568 2.911-0.625 3.181-0.365 0.733-0.913 0.733h-4.015c-0.731 0-0.953 0.096-1.442 0.706s-4.891 5.912-4.891 5.912c-0.044 0.051-0.088 0.036-0.088-0.019v-18.514c0-0.418 0.363-0.908 0.905-0.908h11.946c0.421 0.009 0.759 0.353 0.759 0.776 0 0.064-0.008 0.126-0.022 0.186l0.001-0.005z"></path>
</svg>
