<!-- Generated by IcoMoon.io -->
<svg version="1.1" xmlns="http://www.w3.org/2000/svg" width="32" height="32" viewBox="0 0 32 32">
<title>logo-xbox</title>
<path d="M7.925 15.519c2.481-3.662 4.869-5.8 4.869-5.8s-2.631-3.056-5.8-4.213l-0.206-0.050c-2.941 2.581-4.787 6.348-4.787 10.545 0 3.183 1.062 6.118 2.85 8.47l-0.025-0.035c0-0.275 0.037-4.394 3.1-8.919z"></path>
<path d="M30 16c0-0.003 0-0.007 0-0.010 0-4.194-1.847-7.957-4.771-10.52l-0.016-0.014-0.2 0.056c-3.169 1.156-5.806 4.213-5.806 4.213s2.387 2.137 4.869 5.8c3.063 4.525 3.1 8.644 3.094 8.919 1.767-2.31 2.831-5.239 2.831-8.416 0-0.010 0-0.019-0-0.029v0.001z"></path>
<path d="M12.575 5.056c1.831 0.819 3.412 2.162 3.412 2.162s1.594-1.338 3.425-2.162c2.3-1.031 4.056-0.706 4.519-0.594-2.217-1.541-4.967-2.462-7.931-2.462s-5.714 0.921-7.977 2.493l0.046-0.030c0.45-0.112 2.2-0.444 4.506 0.594z"></path>
<path d="M22.419 18.306c-2.894-3.556-6.431-5.869-6.431-5.869s-3.519 2.313-6.419 5.869c-2.487 3.056-3.412 5.3-3.912 6.738l-0.081 0.3c2.574 2.863 6.29 4.656 10.425 4.656s7.851-1.792 10.414-4.643l0.011-0.013-0.087-0.3c-0.5-1.438-1.431-3.681-3.919-6.738z"></path>
</svg>
