<!-- Generated by IcoMoon.io -->
<svg version="1.1" xmlns="http://www.w3.org/2000/svg" width="32" height="32" viewBox="0 0 32 32">
<title>mail</title>
<path d="M26.5 5h-21c-1.932 0.002-3.498 1.568-3.5 3.5v15c0.002 1.932 1.568 3.498 3.5 3.5h21c1.932-0.002 3.498-1.568 3.5-3.5v-15c-0.002-1.932-1.568-3.498-3.5-3.5h-0zM25.614 10.789l-9 7c-0.168 0.131-0.381 0.21-0.614 0.21s-0.446-0.079-0.616-0.212l0.002 0.002-9-7c-0.242-0.184-0.397-0.473-0.397-0.798 0-0.552 0.448-1 1-1 0.237 0 0.455 0.083 0.627 0.221l-0.002-0.002 8.386 6.523 8.386-6.523c0.166-0.126 0.375-0.202 0.603-0.202 0.552 0 1 0.448 1 1 0 0.315-0.146 0.596-0.373 0.779l-0.002 0.002z"></path>
</svg>
