<!-- Generated by IcoMoon.io -->
<svg version="1.1" xmlns="http://www.w3.org/2000/svg" width="32" height="32" viewBox="0 0 32 32">
<title>medkit-sharp</title>
<path d="M30.25 6h-6.25v-3.5c0-0.276-0.224-0.5-0.5-0.5v0h-15c-0.276 0-0.5 0.224-0.5 0.5v0 3.5h-6.25c-0.414 0-0.75 0.336-0.75 0.75v0 22.5c0 0.414 0.336 0.75 0.75 0.75v0h28.5c0.414 0 0.75-0.336 0.75-0.75v0-22.5c0-0.414-0.336-0.75-0.75-0.75v0zM10.5 4.5h11v1.5h-11zM22 19.375h-4.625v4.625h-2.75v-4.625h-4.625v-2.75h4.625v-4.625h2.75v4.625h4.625z"></path>
</svg>
