<!-- Generated by IcoMoon.io -->
<svg version="1.1" xmlns="http://www.w3.org/2000/svg" width="32" height="32" viewBox="0 0 32 32">
<title>moon</title>
<path d="M16.5 30c-8.008 0-14.5-6.492-14.5-14.5v0c0-5.875 3.375-11.143 8.601-13.417 0.118-0.053 0.255-0.083 0.4-0.083 0.552 0 1 0.448 1 1 0 0.144-0.031 0.282-0.086 0.406l0.003-0.006c-0.6 1.377-0.917 3.142-0.917 5.101 0 6.893 5.607 12.5 12.5 12.5 1.959 0 3.723-0.317 5.101-0.917 0.118-0.053 0.255-0.083 0.4-0.083 0.552 0 1 0.448 1 1 0 0.145-0.031 0.282-0.086 0.406l0.003-0.006c-2.274 5.226-7.542 8.601-13.417 8.601z"></path>
</svg>
