<!-- Generated by IcoMoon.io -->
<svg version="1.1" xmlns="http://www.w3.org/2000/svg" width="32" height="32" viewBox="0 0 32 32">
<title>notifications-circle-sharp</title>
<path d="M18.48 21.964c0 0.012 0 0.024 0 0.036h0.020z"></path>
<path d="M16 3c-7.168 0-13 5.832-13 13s5.832 13 13 13 13-5.832 13-13-5.832-13-13-13zM16 24c-1.405 0-2.5-0.641-2.5-2h5c-0.019 1.336-1.107 2-2.5 2zM23 21h-14v-1.75l1.75-2.25v-2.019c0-2.526 0.989-4.709 3.5-5.267l0.25-1.714h3l0.25 1.714c2.5 0.557 3.5 2.75 3.5 5.267v2.019l1.75 2.25z"></path>
</svg>
