<!-- Generated by IcoMoon.io -->
<svg version="1.1" xmlns="http://www.w3.org/2000/svg" width="32" height="32" viewBox="0 0 32 32">
<title>options-sharp</title>
<path d="M23.828 7c-0.425-1.175-1.53-1.999-2.828-1.999s-2.404 0.824-2.822 1.978l-0.007 0.021h-15.172v2h15.172c0.425 1.175 1.53 1.999 2.828 1.999s2.404-0.824 2.822-1.978l0.007-0.021h5.172v-2z"></path>
<path d="M11 13c-1.298 0.002-2.402 0.826-2.822 1.979l-0.007 0.021h-5.172v2h5.172c0.425 1.175 1.53 1.999 2.828 1.999s2.404-0.824 2.822-1.978l0.007-0.021h15.172v-2h-15.172c-0.426-1.174-1.53-1.998-2.828-2h-0z"></path>
<path d="M21 21c-1.298 0.002-2.402 0.826-2.822 1.979l-0.007 0.021h-15.172v2h15.172c0.425 1.175 1.53 1.999 2.828 1.999s2.404-0.824 2.822-1.978l0.007-0.021h5.172v-2h-5.172c-0.426-1.174-1.53-1.998-2.828-2h-0z"></path>
</svg>
