<!-- Generated by IcoMoon.io -->
<svg version="1.1" xmlns="http://www.w3.org/2000/svg" width="32" height="32" viewBox="0 0 32 32">
<title>pencil-sharp</title>
<path d="M6.438 29h-3.438v-3.438l19.384-19.432 3.486 3.486-19.432 19.383z"></path>
<path d="M26.608 8.875l-3.483-3.482 1.979-1.916c0.306-0.308 0.774-0.476 1.209-0.476 0.001 0 0.003 0 0.004 0 0.448 0 0.854 0.182 1.147 0.476l1.063 1.063c0.293 0.293 0.474 0.697 0.474 1.143 0 0.002 0 0.004 0 0.006v-0c0 0.438-0.169 0.903-0.476 1.21zM26.137 4.448v0z"></path>
</svg>
