<!-- Generated by IcoMoon.io -->
<svg version="1.1" xmlns="http://www.w3.org/2000/svg" width="32" height="32" viewBox="0 0 32 32">
<title>people-circle-outline</title>
<path d="M16 29c-7.168 0-13-5.832-13-13s5.832-13 13-13 13 5.832 13 13-5.832 13-13 13zM16 5c-6.063 0-11 4.938-11 11s4.938 11 11 11 11-4.934 11-11-4.934-11-11-11z"></path>
<path d="M20.229 18.25c-1.087 0-2.138-0.483-2.959-1.358-0.784-0.848-1.291-1.962-1.374-3.192l-0.001-0.016c-0.092-1.294 0.305-2.484 1.117-3.351s1.948-1.333 3.216-1.333c1.259 0 2.398 0.476 3.208 1.341s1.217 2.063 1.125 3.344v0c-0.085 1.245-0.593 2.358-1.378 3.21l0.003-0.004c-0.821 0.876-1.871 1.358-2.958 1.358zM23.718 13.625v0z"></path>
<path d="M10.239 18.46c-1.86 0-3.496-1.719-3.646-3.833-0.077-1.082 0.259-2.083 0.948-2.817s1.639-1.125 2.697-1.125 2.008 0.402 2.692 1.134 1.031 1.739 0.953 2.813c-0.152 2.111-1.787 3.829-3.644 3.829z"></path>
<path d="M26.273 22.205c-0.099-0.294-0.341-0.607-0.826-0.904-1.466-0.896-3.27-1.369-5.218-1.369-1.911 0-3.764 0.494-5.221 1.391-1.641 1.011-2.743 2.484-3.188 4.261-0.105 0.418-0.258 1.196-0.094 1.632 1.267 0.497 2.735 0.784 4.269 0.784 4.336 0 8.136-2.298 10.248-5.743l0.030-0.052z"></path>
<path d="M10.227 25.086c0.442-1.763 1.383-3.233 2.842-4.422 0.111-0.092 0.182-0.231 0.182-0.386 0-0.22-0.142-0.407-0.34-0.474l-0.004-0.001c-0.75-0.239-1.606-0.367-2.668-0.367-1.489 0-3.069 0.403-4.259 1.136-0.338 0.208-0.669 0.288-0.924 0.359 1.053 2.289 2.726 4.141 4.806 5.385l0.055 0.030 0.112-0.009c0.027-0.457 0.098-0.885 0.208-1.296l-0.010 0.045z"></path>
</svg>
