<!-- Generated by IcoMoon.io -->
<svg version="1.1" xmlns="http://www.w3.org/2000/svg" width="32" height="32" viewBox="0 0 32 32">
<title>person-circle-sharp</title>
<path d="M16 3c-7.168 0-13 5.832-13 13s5.832 13 13 13 13-5.832 13-13-5.832-13-13-13zM16.125 9c2.485 0 4.5 2.015 4.5 4.5s-2.015 4.5-4.5 4.5c-2.485 0-4.5-2.015-4.5-4.5v0c0-2.485 2.015-4.5 4.5-4.5v0zM16 27c-0.001 0-0.003 0-0.005 0-3.188 0-6.058-1.359-8.062-3.53l-0.007-0.007c0.552-2.861 5.515-3.462 8.074-3.462s7.521 0.601 8.074 3.462c-2.011 2.178-4.881 3.538-8.069 3.538-0.002 0-0.003 0-0.005 0h0z"></path>
</svg>
