<!-- Generated by IcoMoon.io -->
<svg version="1.1" xmlns="http://www.w3.org/2000/svg" width="32" height="32" viewBox="0 0 32 32">
<title>pin-sharp</title>
<path d="M21.188 6.188c-0-2.865-2.323-5.187-5.188-5.187s-5.188 2.323-5.188 5.188c0 2.444 1.69 4.493 3.965 5.043l0.035 0.007v17.762l1.188 2 1.188-2v-17.762c2.307-0.563 3.993-2.608 4-5.049v-0.001zM17.5 5.813c-0.725 0-1.313-0.588-1.313-1.313s0.588-1.313 1.313-1.313c0.725 0 1.313 0.588 1.313 1.313v0c0 0.725-0.588 1.313-1.313 1.313v0z"></path>
</svg>
