<!-- Generated by IcoMoon.io -->
<svg version="1.1" xmlns="http://www.w3.org/2000/svg" width="32" height="32" viewBox="0 0 32 32">
<title>play</title>
<path d="M8.313 27.5c-0.403-0.001-0.78-0.109-1.104-0.298l0.011 0.006c-0.75-0.425-1.216-1.25-1.216-2.146v-18.125c0-0.898 0.466-1.721 1.216-2.146 0.314-0.184 0.691-0.292 1.094-0.292 0.422 0 0.816 0.119 1.151 0.326l-0.009-0.005 15.491 9.273c0.638 0.405 1.055 1.107 1.055 1.906s-0.417 1.502-1.046 1.901l-0.009 0.005-15.493 9.275c-0.325 0.2-0.718 0.318-1.139 0.32h-0z"></path>
</svg>
