<!-- Generated by IcoMoon.io -->
<svg version="1.1" xmlns="http://www.w3.org/2000/svg" width="32" height="32" viewBox="0 0 32 32">
<title>pricetag</title>
<path d="M29.188 2.825c-0.504-0.51-1.203-0.825-1.976-0.825-0.002 0-0.004 0-0.007 0h-7.683c-0.525 0.001-1 0.213-1.345 0.556l-15.359 15.356c-0.506 0.507-0.818 1.206-0.818 1.979s0.313 1.472 0.818 1.979l7.312 7.312c0.507 0.506 1.207 0.819 1.979 0.819s1.473-0.313 1.979-0.819l15.353-15.35c0.343-0.345 0.556-0.819 0.558-1.344v-7.688c0-0.005 0-0.011 0-0.017 0-0.765-0.311-1.457-0.813-1.958l-0-0zM24 10c-1.105 0-2-0.895-2-2s0.895-2 2-2c1.105 0 2 0.895 2 2v0c0 1.105-0.895 2-2 2v0z"></path>
</svg>
