<!-- Generated by IcoMoon.io -->
<svg version="1.1" xmlns="http://www.w3.org/2000/svg" width="32" height="32" viewBox="0 0 32 32">
<title>prism</title>
<path d="M30.489 19.965l-12.012-17.66c-0.548-0.794-1.452-1.307-2.477-1.307s-1.929 0.514-2.47 1.297l-0.007 0.010-12.012 17.66c-0.319 0.464-0.51 1.037-0.51 1.656 0 1.122 0.628 2.098 1.552 2.595l0.016 0.008 12.012 6.422c0.411 0.224 0.899 0.356 1.419 0.356s1.008-0.132 1.434-0.364l-0.016 0.008 12.012-6.422c0.94-0.504 1.568-1.48 1.568-2.602 0-0.618-0.191-1.192-0.516-1.666l0.006 0.010zM3.536 22.527c-0.248-0.136-0.43-0.366-0.499-0.642l-0.001-0.007c-0.021-0.078-0.033-0.169-0.033-0.262 0-0.22 0.068-0.424 0.184-0.593l-0.002 0.004 11.357-16.699c0.136-0.201 0.459-0.107 0.459 0.133v23.375c0 0.369-0.409 0.602-0.742 0.424z"></path>
</svg>
