<!-- Generated by IcoMoon.io -->
<svg version="1.1" xmlns="http://www.w3.org/2000/svg" width="32" height="32" viewBox="0 0 32 32">
<title>qr-code-sharp</title>
<path d="M21 21h5v5h-5v-5z"></path>
<path d="M17 17h4v4h-4v-4z"></path>
<path d="M26 26h4v4h-4v-4z"></path>
<path d="M27 17h3v3h-3v-3z"></path>
<path d="M17 27h3v3h-3v-3z"></path>
<path d="M21 6h5v5h-5v-5z"></path>
<path d="M30 15h-13v-13h13zM19.75 12.25h7.5v-7.5h-7.5z"></path>
<path d="M6 6h5v5h-5v-5z"></path>
<path d="M15 15h-13v-13h13zM4.75 12.25h7.5v-7.5h-7.5z"></path>
<path d="M6 21h5v5h-5v-5z"></path>
<path d="M15 30h-13v-13h13zM4.75 27.25h7.5v-7.5h-7.5z"></path>
</svg>
