<!-- Generated by IcoMoon.io -->
<svg version="1.1" xmlns="http://www.w3.org/2000/svg" width="32" height="32" viewBox="0 0 32 32">
<title>qr-code</title>
<path d="M21.5 21h4c0.276 0 0.5 0.224 0.5 0.5v4c0 0.276-0.224 0.5-0.5 0.5h-4c-0.276 0-0.5-0.224-0.5-0.5v-4c0-0.276 0.224-0.5 0.5-0.5z"></path>
<path d="M17.5 17h3c0.276 0 0.5 0.224 0.5 0.5v3c0 0.276-0.224 0.5-0.5 0.5h-3c-0.276 0-0.5-0.224-0.5-0.5v-3c0-0.276 0.224-0.5 0.5-0.5z"></path>
<path d="M26.5 26h3c0.276 0 0.5 0.224 0.5 0.5v3c0 0.276-0.224 0.5-0.5 0.5h-3c-0.276 0-0.5-0.224-0.5-0.5v-3c0-0.276 0.224-0.5 0.5-0.5z"></path>
<path d="M27.5 17h2c0.276 0 0.5 0.224 0.5 0.5v2c0 0.276-0.224 0.5-0.5 0.5h-2c-0.276 0-0.5-0.224-0.5-0.5v-2c0-0.276 0.224-0.5 0.5-0.5z"></path>
<path d="M17.5 27h2c0.276 0 0.5 0.224 0.5 0.5v2c0 0.276-0.224 0.5-0.5 0.5h-2c-0.276 0-0.5-0.224-0.5-0.5v-2c0-0.276 0.224-0.5 0.5-0.5z"></path>
<path d="M28 2h-9c-1.105 0-2 0.895-2 2v0 9c0 1.105 0.895 2 2 2v0h9c1.105 0 2-0.895 2-2v0-9c0-1.105-0.895-2-2-2v0zM26 10.5c0 0.276-0.224 0.5-0.5 0.5v0h-4c-0.276 0-0.5-0.224-0.5-0.5v0-4c0-0.276 0.224-0.5 0.5-0.5v0h4c0.276 0 0.5 0.224 0.5 0.5v0z"></path>
<path d="M13 2h-9c-1.105 0-2 0.895-2 2v0 9c0 1.105 0.895 2 2 2v0h9c1.105 0 2-0.895 2-2v0-9c0-1.105-0.895-2-2-2v0zM11 10.5c0 0.276-0.224 0.5-0.5 0.5v0h-4c-0.276 0-0.5-0.224-0.5-0.5v0-4c0-0.276 0.224-0.5 0.5-0.5v0h4c0.276 0 0.5 0.224 0.5 0.5v0z"></path>
<path d="M13 17h-9c-1.105 0-2 0.895-2 2v0 9c0 1.105 0.895 2 2 2v0h9c1.105 0 2-0.895 2-2v0-9c0-1.105-0.895-2-2-2v0zM11 25.5c0 0.276-0.224 0.5-0.5 0.5v0h-4c-0.276 0-0.5-0.224-0.5-0.5v0-4c0-0.276 0.224-0.5 0.5-0.5v0h4c0.276 0 0.5 0.224 0.5 0.5v0z"></path>
</svg>
