<!-- Generated by IcoMoon.io -->
<svg version="1.1" xmlns="http://www.w3.org/2000/svg" width="32" height="32" viewBox="0 0 32 32">
<title>rainy-sharp</title>
<path d="M22.75 21h-14.625c-1.844 0-3.433-0.489-4.596-1.415-1.327-1.058-2.029-2.626-2.029-4.535 0-1.666 0.63-3.113 1.821-4.182 0.952-0.855 2.261-1.451 3.688-1.678v0c0.004 0 0.005 0 0.006-0.003 0.402-2.438 1.489-4.506 3.144-5.98 1.54-1.37 3.58-2.208 5.816-2.208 0.009 0 0.018 0 0.027 0h-0.001c1.889 0 3.655 0.587 5.107 1.698 1.251 0.978 2.224 2.257 2.814 3.731l0.021 0.060c1.838 0.301 3.42 1.069 4.574 2.221 1.296 1.296 1.984 3.021 1.984 4.989 0 2.053-0.821 3.929-2.313 5.282-1.431 1.301-3.363 2.018-5.438 2.018z"></path>
<path d="M5.864 26.901l3.109-4.664 1.664 1.109-3.109 4.664-1.664-1.109z"></path>
<path d="M8.864 29.902l5.109-7.664 1.664 1.109-5.109 7.664-1.664-1.109z"></path>
<path d="M15.863 26.901l3.109-4.664 1.664 1.109-3.109 4.664-1.664-1.109z"></path>
<path d="M18.863 29.902l5.109-7.664 1.664 1.109-5.109 7.664-1.664-1.109z"></path>
</svg>
