<!-- Generated by IcoMoon.io -->
<svg version="1.1" xmlns="http://www.w3.org/2000/svg" width="32" height="32" viewBox="0 0 32 32">
<title>reader</title>
<path d="M23 2h-14c-2.208 0.002-3.998 1.792-4 4v20c0.003 2.208 1.792 3.997 4 4h14c2.208-0.003 3.997-1.792 4-4v-20c-0.003-2.208-1.792-3.998-4-4h-0zM16 19h-5c-0.552 0-1-0.448-1-1s0.448-1 1-1v0h5c0.552 0 1 0.448 1 1s-0.448 1-1 1v0zM21 14h-10c-0.552 0-1-0.448-1-1s0.448-1 1-1v0h10c0.552 0 1 0.448 1 1s-0.448 1-1 1v0zM21 9h-10c-0.552 0-1-0.448-1-1s0.448-1 1-1v0h10c0.552 0 1 0.448 1 1s-0.448 1-1 1v0z"></path>
</svg>
