<!-- Generated by IcoMoon.io -->
<svg version="1.1" xmlns="http://www.w3.org/2000/svg" width="32" height="32" viewBox="0 0 32 32">
<title>save</title>
<path d="M29.121 7.485l-4.606-4.606c-0.54-0.543-1.287-0.879-2.113-0.879-0.003 0-0.006 0-0.009 0h-16.393c-2.209 0-4 1.791-4 4v0 20c0 2.209 1.791 4 4 4v0h20c2.209 0 4-1.791 4-4v0-16.394c0-0.002 0-0.005 0-0.008 0-0.826-0.336-1.573-0.879-2.113l-0-0zM7.5 7h11c0.276 0 0.5 0.224 0.5 0.5v0 3c0 0.276-0.224 0.5-0.5 0.5v0h-11c-0.276 0-0.5-0.224-0.5-0.5v0-3c0-0.276 0.224-0.5 0.5-0.5v0zM16.234 26.994c-0.070 0.003-0.152 0.006-0.235 0.006-2.761 0-5-2.239-5-5s2.239-5 5-5c2.761 0 5 2.239 5 5 0 0.082-0.002 0.165-0.006 0.246l0-0.012c-0.127 2.576-2.184 4.633-4.748 4.76l-0.012 0z"></path>
<path d="M19 22c0 1.657-1.343 3-3 3s-3-1.343-3-3c0-1.657 1.343-3 3-3s3 1.343 3 3z"></path>
</svg>
