<!-- Generated by IcoMoon.io -->
<svg version="1.1" xmlns="http://www.w3.org/2000/svg" width="32" height="32" viewBox="0 0 32 32">
<title>scale</title>
<path d="M23 2h-14c-3.864 0.004-6.996 3.136-7 7v14c0.004 3.864 3.136 6.996 7 7h14c3.864-0.004 6.996-3.136 7-7v-14c-0.004-3.864-3.136-6.996-7-7h-0zM25.263 13.125l-2.082 2.451c-0.481 0.568-1.195 0.927-1.993 0.928h-0c-0.516-0.001-0.997-0.149-1.404-0.405l0.011 0.006c-0.889-0.549-2.269-1.203-3.793-1.203s-2.904 0.654-3.793 1.203c-0.394 0.25-0.874 0.399-1.389 0.399-0.8 0-1.516-0.359-1.995-0.924l-0.003-0.004-2.084-2.451c-0.471-0.548-0.758-1.266-0.758-2.052 0-0.927 0.4-1.761 1.036-2.338l0.003-0.002c1.74-1.584 4.711-3.473 8.982-3.473s7.243 1.889 8.982 3.473c0.639 0.58 1.039 1.413 1.039 2.34 0 0.785-0.287 1.504-0.762 2.056l0.003-0.004z"></path>
</svg>
