<!-- Generated by IcoMoon.io -->
<svg version="1.1" xmlns="http://www.w3.org/2000/svg" width="32" height="32" viewBox="0 0 32 32">
<title>scale-sharp</title>
<path d="M27 2h-22c-1.656 0.002-2.998 1.344-3 3v22c0.002 1.656 1.344 2.998 3 3h22c1.656-0.002 2.998-1.344 3-3v-22c-0.002-1.656-1.344-2.998-3-3h-0zM25.956 12.313l-3.279 3.858c-0.321 0.38-0.798 0.62-1.332 0.62-0.384 0-0.739-0.124-1.026-0.335l0.005 0.003c-0.813-0.581-2.454-1.556-4.324-1.556s-3.511 0.975-4.324 1.556c-0.283 0.207-0.638 0.331-1.021 0.331-0.533 0-1.010-0.24-1.33-0.618l-0.002-0.003-3.279-3.858c-0.296-0.347-0.476-0.801-0.476-1.297 0-0.51 0.19-0.976 0.504-1.33l-0.002 0.002c1.183-1.332 4.519-4.429 9.929-4.429s8.746 3.099 9.929 4.429v0c0.312 0.352 0.502 0.818 0.502 1.328 0 0.496-0.18 0.95-0.478 1.3l0.002-0.003z"></path>
</svg>
