<!-- Generated by IcoMoon.io -->
<svg version="1.1" xmlns="http://www.w3.org/2000/svg" width="32" height="32" viewBox="0 0 32 32">
<title>scan-circle-sharp</title>
<path d="M16 3c-7.168 0-13 5.832-13 13s5.832 13 13 13 13-5.832 13-13-5.832-13-13-13zM14.5 23h-2.75c-1.518-0.002-2.748-1.232-2.75-2.75v-2.75h2v2.75c0 0.414 0.336 0.75 0.75 0.75v0h2.75zM14.5 11h-2.75c-0.414 0-0.75 0.336-0.75 0.75v0 2.75h-2v-2.75c0.002-1.518 1.232-2.748 2.75-2.75h2.75zM23 20.25c-0.002 1.518-1.232 2.748-2.75 2.75h-2.75v-2h2.75c0.414 0 0.75-0.336 0.75-0.75v0-2.75h2zM23 14.5h-2v-2.75c0-0.414-0.336-0.75-0.75-0.75v0h-2.75v-2h2.75c1.518 0.002 2.748 1.232 2.75 2.75v0z"></path>
</svg>
