<!-- Generated by IcoMoon.io -->
<svg version="1.1" xmlns="http://www.w3.org/2000/svg" width="32" height="32" viewBox="0 0 32 32">
<title>search-circle</title>
<path d="M16 4c-6.617 0-12 5.383-12 12s5.383 12 12 12 12-5.383 12-12-5.383-12-12-12zM21.707 21.707c-0.181 0.181-0.431 0.293-0.707 0.293s-0.526-0.112-0.707-0.293l-2.677-2.677c-0.872 0.607-1.954 0.97-3.121 0.97-3.040 0-5.505-2.465-5.505-5.505s2.465-5.505 5.505-5.505c3.040 0 5.505 2.465 5.505 5.505 0 1.167-0.363 2.248-0.982 3.139l0.012-0.018 2.677 2.678c0.181 0.181 0.293 0.431 0.293 0.707s-0.112 0.526-0.293 0.707v0z"></path>
<path d="M18 14.5c0 1.933-1.567 3.5-3.5 3.5s-3.5-1.567-3.5-3.5c0-1.933 1.567-3.5 3.5-3.5s3.5 1.567 3.5 3.5z"></path>
</svg>
