<!-- Generated by IcoMoon.io -->
<svg version="1.1" xmlns="http://www.w3.org/2000/svg" width="32" height="32" viewBox="0 0 32 32">
<title>search</title>
<path d="M28.543 26.337l-5.881-5.881c1.359-1.794 2.178-4.064 2.178-6.524 0-0.004 0-0.008 0-0.013v0.001c0-6.021-4.899-10.92-10.92-10.92s-10.92 4.899-10.92 10.92 4.899 10.92 10.92 10.92c0.004 0 0.008 0 0.012 0 2.461 0 4.73-0.818 6.552-2.197l-0.027 0.020 5.881 5.881c0.275 0.247 0.641 0.398 1.041 0.398 0.863 0 1.563-0.7 1.563-1.563 0-0.401-0.151-0.766-0.399-1.043l0.001 0.001zM6.12 13.92c0-4.308 3.492-7.8 7.8-7.8s7.8 3.492 7.8 7.8c0 4.308-3.492 7.8-7.8 7.8v0c-4.306-0.005-7.795-3.494-7.8-7.799v-0.001z"></path>
</svg>
