<!-- Generated by IcoMoon.io -->
<svg version="1.1" xmlns="http://www.w3.org/2000/svg" width="32" height="32" viewBox="0 0 32 32">
<title>shield-half-sharp</title>
<path d="M16 2c-5.125 2.316-8.414 3.404-14 4 0 4.849 0.329 8.335 1.581 11.532 1.085 2.722 2.595 5.055 4.473 7.035l-0.009-0.010c3.1 3.291 6.511 5.025 7.955 5.442 1.444-0.418 4.855-2.151 7.955-5.442 1.869-1.971 3.379-4.303 4.412-6.879l0.052-0.147c1.251-3.197 1.581-6.683 1.581-11.532-5.586-0.596-8.875-1.684-14-4zM26.092 16.621c-0.962 2.411-2.301 4.477-3.965 6.231l0.008-0.009c-2.385 2.532-4.844 3.926-6.135 4.492v-22.598c2.422 1.063 4.296 1.769 6.121 2.306 1.484 0.457 3.291 0.861 5.142 1.132l0.208 0.025c-0.108 3.764-0.523 6.231-1.379 8.42z"></path>
</svg>
