<!-- Generated by IcoMoon.io -->
<svg version="1.1" xmlns="http://www.w3.org/2000/svg" width="32" height="32" viewBox="0 0 32 32">
<title>shield-checkmark-sharp</title>
<path d="M29.942 6.96l-0.049-0.783-0.773-0.138c-5.406-0.97-7.663-1.671-12.708-3.95l-0.412-0.188-0.412 0.188c-5.045 2.279-7.302 2.98-12.708 3.95l-0.772 0.138-0.049 0.783c-0.241 3.819 0.272 7.378 1.527 10.578 1.089 2.725 2.604 5.060 4.486 7.041l-0.009-0.009c3.342 3.546 6.89 5.086 7.567 5.358l0.375 0.151 0.375-0.151c0.677-0.273 4.225-1.813 7.567-5.358 1.87-1.973 3.382-4.307 4.417-6.885l0.052-0.147c1.254-3.199 1.767-6.758 1.527-10.578zM14.135 20.46l-4.549-4.46 1.4-1.429 3.029 2.968 6.883-7.95 1.512 1.309z"></path>
</svg>
