<!-- Generated by IcoMoon.io -->
<svg version="1.1" xmlns="http://www.w3.org/2000/svg" width="32" height="32" viewBox="0 0 32 32">
<title>skull-sharp</title>
<path d="M16 1c-7.168 0-13 5.832-13 13v9.677l5.125 2.051 1.055 5.273h2.82v-4h2v4h1v-4h2v4h1v-4h2v4h2.82l1.055-5.273 5.125-2.051v-9.677c0-7.168-5.832-13-13-13zM10.5 21c-1.933 0-3.5-1.567-3.5-3.5s1.567-3.5 3.5-3.5c1.933 0 3.5 1.567 3.5 3.5v0c-0.002 1.932-1.568 3.498-3.5 3.5h-0zM13.719 25l1.531-5h1.5l1.531 5zM21.5 21c-1.933 0-3.5-1.567-3.5-3.5s1.567-3.5 3.5-3.5c1.933 0 3.5 1.567 3.5 3.5v0c-0.002 1.932-1.568 3.498-3.5 3.5h-0zM28 23v0z"></path>
</svg>
