<!-- Generated by IcoMoon.io -->
<svg version="1.1" xmlns="http://www.w3.org/2000/svg" width="32" height="32" viewBox="0 0 32 32">
<title>sparkles</title>
<path d="M13 32c-0.002 0-0.005 0-0.008 0-0.659 0-1.222-0.41-1.447-0.989l-0.004-0.011-2.49-6.475c-0.104-0.265-0.31-0.47-0.568-0.572l-0.007-0.002-6.477-2.492c-0.591-0.232-1.003-0.797-1.003-1.459s0.411-1.227 0.992-1.455l0.011-0.004 6.475-2.49c0.265-0.104 0.47-0.31 0.572-0.568l0.002-0.007 2.492-6.477c0.232-0.591 0.797-1.003 1.459-1.003s1.227 0.411 1.455 0.992l0.004 0.011 2.49 6.475c0.104 0.265 0.31 0.47 0.568 0.572l0.007 0.002 6.438 2.477c0.612 0.232 1.039 0.813 1.039 1.494 0 0.004-0 0.009-0 0.013v-0.001c-0.010 0.649-0.418 1.2-0.989 1.423l-0.011 0.004-6.475 2.49c-0.265 0.104-0.47 0.31-0.572 0.568l-0.002 0.007-2.492 6.477c-0.229 0.59-0.792 1-1.451 1-0.003 0-0.006 0-0.008-0h0zM17.178 16.073v0z"></path>
<path d="M5.5 11c-0.388-0-0.72-0.241-0.853-0.581l-0.002-0.006-1.054-2.74c-0.047-0.122-0.142-0.216-0.26-0.262l-0.003-0.001-2.74-1.054c-0.347-0.136-0.587-0.468-0.587-0.856s0.241-0.72 0.581-0.853l0.006-0.002 2.74-1.054c0.121-0.047 0.216-0.142 0.262-0.26l0.001-0.003 1.044-2.716c0.121-0.322 0.405-0.557 0.749-0.604l0.005-0.001c0.033-0.004 0.072-0.007 0.111-0.007 0.388 0 0.719 0.241 0.853 0.581l0.002 0.006 1.054 2.74c0.047 0.121 0.142 0.216 0.26 0.262l0.003 0.001 2.74 1.054c0.347 0.136 0.587 0.468 0.587 0.856s-0.241 0.72-0.581 0.853l-0.006 0.002-2.74 1.054c-0.122 0.047-0.216 0.142-0.262 0.26l-0.001 0.003-1.054 2.74c-0.136 0.347-0.468 0.587-0.856 0.588v0z"></path>
<path d="M25 16c-0.423-0-0.785-0.263-0.931-0.634l-0.002-0.007-1.427-3.711c-0.052-0.133-0.155-0.236-0.284-0.286l-0.003-0.001-3.711-1.428c-0.378-0.149-0.64-0.51-0.64-0.933s0.263-0.785 0.634-0.931l0.007-0.002 3.711-1.428c0.133-0.052 0.236-0.155 0.286-0.284l0.001-0.003 1.417-3.684c0.133-0.351 0.443-0.607 0.818-0.66l0.005-0.001c0.036-0.005 0.078-0.007 0.12-0.007 0.423 0 0.785 0.263 0.931 0.635l0.002 0.007 1.427 3.711c0.052 0.133 0.155 0.236 0.284 0.286l0.003 0.001 3.711 1.427c0.378 0.149 0.64 0.51 0.64 0.933s-0.263 0.785-0.634 0.931l-0.007 0.002-3.711 1.428c-0.133 0.052-0.236 0.155-0.286 0.284l-0.001 0.003-1.427 3.711c-0.148 0.378-0.51 0.641-0.933 0.641h-0z"></path>
</svg>
