<!-- Generated by IcoMoon.io -->
<svg version="1.1" xmlns="http://www.w3.org/2000/svg" width="32" height="32" viewBox="0 0 32 32">
<title>stats-chart</title>
<path d="M6.5 31h-2c-0.828 0-1.5-0.672-1.5-1.5v0-9c0-0.828 0.672-1.5 1.5-1.5v0h2c0.828 0 1.5 0.672 1.5 1.5v0 9c0 0.828-0.672 1.5-1.5 1.5v0z"></path>
<path d="M20.5 31h-2c-0.828 0-1.5-0.672-1.5-1.5v0-15c0-0.828 0.672-1.5 1.5-1.5v0h2c0.828 0 1.5 0.672 1.5 1.5v0 15c0 0.828-0.672 1.5-1.5 1.5v0z"></path>
<path d="M27.5 31h-2c-0.828 0-1.5-0.672-1.5-1.5v0-22c0-0.828 0.672-1.5 1.5-1.5v0h2c0.828 0 1.5 0.672 1.5 1.5v0 22c0 0.828-0.672 1.5-1.5 1.5v0z"></path>
<path d="M13.5 31h-2c-0.828 0-1.5-0.672-1.5-1.5v0-27c0-0.828 0.672-1.5 1.5-1.5v0h2c0.828 0 1.5 0.672 1.5 1.5v0 27c0 0.828-0.672 1.5-1.5 1.5v0z"></path>
</svg>
