<!-- Generated by IcoMoon.io -->
<svg version="1.1" xmlns="http://www.w3.org/2000/svg" width="32" height="32" viewBox="0 0 32 32">
<title>tablet-portrait</title>
<path d="M24 32h-16c-2.208-0.003-3.998-1.792-4-4v-24c0.003-2.208 1.792-3.998 4-4h16c2.208 0.003 3.997 1.792 4 4v24c-0.003 2.208-1.792 3.997-4 4h-0zM8 2c-1.105 0-2 0.895-2 2v0 24c0 1.105 0.895 2 2 2v0h16c1.105 0 2-0.895 2-2v0-24c0-1.105-0.895-2-2-2v0z"></path>
<path d="M24 0c2.208 0.003 3.997 1.792 4 4v24c-0.003 2.208-1.792 3.997-4 4h-16c-2.208-0.003-3.998-1.792-4-4v-24c0.003-2.208 1.792-3.998 4-4h16zM8 30h16c1.105 0 2-0.895 2-2v0-24c0-1.105-0.895-2-2-2v0h-16c-1.105 0-2 0.895-2 2v0 24c0 1.105 0.895 2 2 2v0zM8 29c-0.552 0-1-0.448-1-1v0-24c0-0.552 0.448-1 1-1v0h16c0.552 0 1 0.448 1 1v0 24c0 0.552-0.448 1-1 1v0z"></path>
</svg>
