<!-- Generated by IcoMoon.io -->
<svg version="1.1" xmlns="http://www.w3.org/2000/svg" width="32" height="32" viewBox="0 0 32 32">
<title>tablet-landscape</title>
<path d="M32 8v16c-0.003 2.208-1.792 3.997-4 4h-24c-2.208-0.003-3.998-1.792-4-4v-16c0.003-2.208 1.792-3.998 4-4h24c2.208 0.003 3.997 1.792 4 4v0zM2 24c0 1.105 0.895 2 2 2v0h24c1.105 0 2-0.895 2-2v0-16c0-1.105-0.895-2-2-2v0h-24c-1.105 0-2 0.895-2 2v0z"></path>
<path d="M0 8c0.003-2.208 1.792-3.998 4-4h24c2.208 0.003 3.997 1.792 4 4v16c-0.003 2.208-1.792 3.997-4 4h-24c-2.208-0.003-3.998-1.792-4-4v-16zM30 24v-16c0-1.105-0.895-2-2-2v0h-24c-1.105 0-2 0.895-2 2v0 16c0 1.105 0.895 2 2 2v0h24c1.105 0 2-0.895 2-2v0zM29 24c0 0.552-0.448 1-1 1v0h-24c-0.552 0-1-0.448-1-1v0-16c0-0.552 0.448-1 1-1v0h24c0.552 0 1 0.448 1 1v0 16z"></path>
</svg>
