<!-- Generated by IcoMoon.io -->
<svg version="1.1" xmlns="http://www.w3.org/2000/svg" width="32" height="32" viewBox="0 0 32 32">
<title>terminal</title>
<path d="M27 2h-22c-2.208 0.002-3.998 1.792-4 4v20c0.002 2.208 1.792 3.997 4 4h22c2.208-0.003 3.997-1.792 4-4v-20c-0.003-2.208-1.792-3.998-4-4h-0zM6 16c-0.552 0-1-0.448-1-1 0-0.315 0.146-0.596 0.373-0.779l0.002-0.002 4.024-3.219-4.024-3.219c-0.23-0.185-0.375-0.466-0.375-0.781 0-0.553 0.448-1 1-1 0.237 0 0.455 0.083 0.627 0.221l-0.002-0.002 5 4c0.23 0.185 0.376 0.466 0.376 0.781s-0.146 0.596-0.374 0.78l-0.002 0.002-5 4c-0.17 0.137-0.388 0.219-0.625 0.219v0zM16 16h-4c-0.552 0-1-0.448-1-1s0.448-1 1-1v0h4c0.552 0 1 0.448 1 1s-0.448 1-1 1v0z"></path>
</svg>
