<!-- Generated by IcoMoon.io -->
<svg version="1.1" xmlns="http://www.w3.org/2000/svg" width="32" height="32" viewBox="0 0 32 32">
<title>thunderstorm-sharp</title>
<path d="M25.365 8.556c-0.443-2.050-1.5-3.805-2.965-5.11l-0.009-0.008c-1.684-1.511-3.922-2.436-6.376-2.436-3.874 0-7.211 2.304-8.713 5.617l-0.024 0.060c-3.496 0.206-6.277 3.112-6.277 6.654 0 3.676 2.994 6.667 6.675 6.667h4.519l-1.194 6h3v5l7-9h-2.719l0.5-2h6.49c3.151-0.013 5.7-2.57 5.7-5.722 0-3.119-2.496-5.655-5.599-5.721l-0.006-0z"></path>
<path d="M4.658 25.449l2.395-4.789 1.789 0.895-2.395 4.789-1.789-0.895z"></path>
<path d="M6.158 29.449l1.895-3.789 1.789 0.895-1.895 3.789-1.789-0.895z"></path>
<path d="M22.159 25.449l2.395-4.789 1.789 0.895-2.395 4.789-1.789-0.895z"></path>
<path d="M23.659 29.45l1.895-3.789 1.789 0.895-1.895 3.789-1.789-0.895z"></path>
</svg>
