<!-- Generated by IcoMoon.io -->
<svg version="1.1" xmlns="http://www.w3.org/2000/svg" width="32" height="32" viewBox="0 0 32 32">
<title>ticket-sharp</title>
<path d="M26.64 7.982l-0.684 0.684c-0.336 0.336-0.8 0.544-1.313 0.544-1.025 0-1.856-0.831-1.856-1.856 0-0.513 0.208-0.977 0.544-1.313l0.684-0.684-4.358-4.357-5.5 5.5-0.25 0.756-0.756 0.25-12.152 12.152 4.36 4.36 0.684-0.684c0.336-0.336 0.8-0.544 1.313-0.544 1.025 0 1.856 0.831 1.856 1.856 0 0.513-0.208 0.977-0.544 1.313v0l-0.684 0.684 4.357 4.358 12.15-12.15 0.25-0.756 0.756-0.25 5.5-5.5zM13.605 8.322l1.367-1.367 2.063 2.063-1.367 1.367zM16.293 11.009l1.367-1.367 2.032 2.033-1.367 1.367zM18.953 13.669l1.367-1.367 2.032 2.033-1.365 1.371zM23.676 18.392l-2.063-2.063 1.367-1.367 2.063 2.063z"></path>
</svg>
