<!-- Generated by IcoMoon.io -->
<svg version="1.1" xmlns="http://www.w3.org/2000/svg" width="32" height="32" viewBox="0 0 32 32">
<title>today</title>
<path d="M26 4h-1v-0.972c0-0.538-0.414-1-0.952-1.027-0.014-0.001-0.031-0.001-0.048-0.001-0.552 0-1 0.448-1 1v0 1h-14v-0.972c0-0.538-0.414-1-0.952-1.027-0.014-0.001-0.031-0.001-0.048-0.001-0.552 0-1 0.448-1 1v0 1h-1c-2.209 0-4 1.791-4 4v0 0.75c0 0.138 0.112 0.25 0.25 0.25v0h27.5c0.138 0 0.25-0.112 0.25-0.25v0-0.75c0-2.209-1.791-4-4-4v0z"></path>
<path d="M29.813 11h-27.625c-0.104 0-0.188 0.084-0.188 0.188v0 14.813c0 2.209 1.791 4 4 4v0h20c2.209 0 4-1.791 4-4v0-14.813c0-0.104-0.084-0.188-0.188-0.188v0zM14 19.214c0 0.986-0.799 1.786-1.786 1.786v0h-4.429c-0.986 0-1.786-0.799-1.786-1.786v0-4.429c0-0.986 0.799-1.786 1.786-1.786v0h4.429c0.986 0 1.786 0.799 1.786 1.786v0z"></path>
</svg>
