<!-- Generated by IcoMoon.io -->
<svg version="1.1" xmlns="http://www.w3.org/2000/svg" width="32" height="32" viewBox="0 0 32 32">
<title>trash-bin-sharp</title>
<path d="M4 10l1.859 17.657c0.082 0.758 0.719 1.343 1.492 1.343 0 0 0 0 0 0h17.299c0 0 0 0 0 0 0.773 0 1.41-0.585 1.491-1.336l0.001-0.007 1.859-17.657zM19.5 23.591l-3.5-3.5-3.5 3.5-1.591-1.591 3.5-3.5-3.5-3.5 1.591-1.591 3.5 3.5 3.5-3.5 1.591 1.591-3.5 3.5 3.5 3.5z"></path>
<path d="M2.75 3h26.5c0.414 0 0.75 0.336 0.75 0.75v3.5c0 0.414-0.336 0.75-0.75 0.75h-26.5c-0.414 0-0.75-0.336-0.75-0.75v-3.5c0-0.414 0.336-0.75 0.75-0.75z"></path>
</svg>
