<!-- Generated by IcoMoon.io -->
<svg version="1.1" xmlns="http://www.w3.org/2000/svg" width="32" height="32" viewBox="0 0 32 32">
<title>videocam</title>
<path d="M29 24.024c-0.294-0-0.574-0.064-0.825-0.178l0.013 0.005c-0.065-0.029-0.12-0.061-0.172-0.098l0.003 0.002-5.169-3.639c-0.516-0.367-0.849-0.962-0.849-1.635v-4.963c0-0.673 0.333-1.268 0.843-1.631l0.006-0.004 5.169-3.639c0.049-0.035 0.105-0.067 0.163-0.094l0.006-0.002c0.239-0.109 0.518-0.172 0.813-0.172 1.105 0 2 0.895 2 2v0 12.047c0 1.105-0.895 2-2 2v0z"></path>
<path d="M16.75 25h-11.5c-2.346-0.003-4.247-1.904-4.25-4.25v-9.5c0.002-2.346 1.904-4.247 4.25-4.25h11.53c2.329 0.003 4.217 1.89 4.22 4.22v9.53c-0.003 2.346-1.904 4.247-4.25 4.25h-0z"></path>
</svg>
