<!-- Generated by IcoMoon.io -->
<svg version="1.1" xmlns="http://www.w3.org/2000/svg" width="32" height="32" viewBox="0 0 32 32">
<title>watch</title>
<path d="M12 8.5h8c1.933 0 3.5 1.567 3.5 3.5v8c0 1.933-1.567 3.5-3.5 3.5h-8c-1.933 0-3.5-1.567-3.5-3.5v-8c0-1.933 1.567-3.5 3.5-3.5z"></path>
<path d="M21 6v-4c0-0.552-0.448-1-1-1v0h-8c-0.552 0-1 0.448-1 1v0 4c-2.76 0.003-4.997 2.24-5 5v10c0.003 2.76 2.24 4.997 5 5h0v4c0 0.552 0.448 1 1 1v0h8c0.552 0 1-0.448 1-1v0-4c2.76-0.003 4.997-2.24 5-5v-10c-0.003-2.76-2.24-4.997-5-5h-0zM24.5 20c-0.003 2.484-2.016 4.497-4.5 4.5h-8c-2.484-0.003-4.497-2.016-4.5-4.5v-8c0.003-2.484 2.016-4.497 4.5-4.5h8c2.484 0.003 4.497 2.016 4.5 4.5v0z"></path>
</svg>
